<mxfile host="65bd71144e" modified="2020-11-11T04:18:02.613Z" agent="5.0 (Macintosh; Intel Mac OS X 10_15_7) AppleWebKit/537.36 (KHTML, like Gecko) Code/1.51.0 Chrome/83.0.4103.122 Electron/9.3.3 Safari/537.36" etag="rqzr2fPknwsqcVGCkItH" version="13.6.5" pages="21">
    <diagram id="MGaN42u6uROctUQz8c4m" name="Page-1">
        <mxGraphModel dx="1402" dy="860" grid="1" gridSize="10" guides="1" tooltips="1" connect="1" arrows="1" fold="1" page="1" pageScale="1" pageWidth="800" pageHeight="800" math="0" shadow="0">
            <root>
                <mxCell id="0"/>
                <mxCell id="1" parent="0"/>
                <mxCell id="2" value="10" style="ellipse;whiteSpace=wrap;html=1;aspect=fixed;fontFamily=Fira Code;" parent="1" vertex="1">
                    <mxGeometry x="400" y="40" width="40" height="40" as="geometry"/>
                </mxCell>
            </root>
        </mxGraphModel>
    </diagram>
    <diagram name="Copy of Page-1" id="Mq2pI6Ogdp_JJeWRbLhf">
        <mxGraphModel dx="1402" dy="860" grid="1" gridSize="10" guides="1" tooltips="1" connect="1" arrows="1" fold="1" page="1" pageScale="1" pageWidth="800" pageHeight="800" math="0" shadow="0">
            <root>
                <mxCell id="5yjm-24eAHWpC0gy7UhC-0"/>
                <mxCell id="5yjm-24eAHWpC0gy7UhC-1" parent="5yjm-24eAHWpC0gy7UhC-0"/>
                <mxCell id="5yjm-24eAHWpC0gy7UhC-2" value="10" style="ellipse;whiteSpace=wrap;html=1;aspect=fixed;fontFamily=Fira Code;" parent="5yjm-24eAHWpC0gy7UhC-1" vertex="1">
                    <mxGeometry x="400" y="40" width="40" height="40" as="geometry"/>
                </mxCell>
                <mxCell id="DI0dJ3IEex73YjJbuaP9-0" style="rounded=0;orthogonalLoop=1;jettySize=auto;html=1;exitX=1;exitY=0;exitDx=0;exitDy=0;entryX=0;entryY=1;entryDx=0;entryDy=0;endArrow=none;endFill=0;" parent="5yjm-24eAHWpC0gy7UhC-1" source="5yjm-24eAHWpC0gy7UhC-4" target="5yjm-24eAHWpC0gy7UhC-2" edge="1">
                    <mxGeometry relative="1" as="geometry"/>
                </mxCell>
                <mxCell id="5yjm-24eAHWpC0gy7UhC-4" value="5" style="ellipse;whiteSpace=wrap;html=1;aspect=fixed;fontFamily=Fira Code;fillColor=#CC0000;" parent="5yjm-24eAHWpC0gy7UhC-1" vertex="1">
                    <mxGeometry x="160" y="120" width="40" height="40" as="geometry"/>
                </mxCell>
            </root>
        </mxGraphModel>
    </diagram>
    <diagram name="Copy of Copy of Page-1" id="Uim8Q-uKfhmA9S2JgbB6">
        <mxGraphModel dx="1402" dy="860" grid="1" gridSize="10" guides="1" tooltips="1" connect="1" arrows="1" fold="1" page="1" pageScale="1" pageWidth="800" pageHeight="800" math="0" shadow="0">
            <root>
                <mxCell id="8RSlf49zM1UPpY5STstZ-0"/>
                <mxCell id="8RSlf49zM1UPpY5STstZ-1" parent="8RSlf49zM1UPpY5STstZ-0"/>
                <mxCell id="e_8Hd7Dy9JS6qpBZC9n1-1" style="edgeStyle=none;rounded=0;orthogonalLoop=1;jettySize=auto;html=1;exitX=1;exitY=1;exitDx=0;exitDy=0;entryX=0;entryY=0;entryDx=0;entryDy=0;endArrow=none;endFill=0;" parent="8RSlf49zM1UPpY5STstZ-1" source="8RSlf49zM1UPpY5STstZ-2" target="8RSlf49zM1UPpY5STstZ-5" edge="1">
                    <mxGeometry relative="1" as="geometry"/>
                </mxCell>
                <mxCell id="8RSlf49zM1UPpY5STstZ-2" value="10" style="ellipse;whiteSpace=wrap;html=1;aspect=fixed;fontFamily=Fira Code;" parent="8RSlf49zM1UPpY5STstZ-1" vertex="1">
                    <mxGeometry x="400" y="40" width="40" height="40" as="geometry"/>
                </mxCell>
                <mxCell id="e_8Hd7Dy9JS6qpBZC9n1-0" style="edgeStyle=none;rounded=0;orthogonalLoop=1;jettySize=auto;html=1;exitX=1;exitY=0;exitDx=0;exitDy=0;entryX=0;entryY=1;entryDx=0;entryDy=0;endArrow=none;endFill=0;" parent="8RSlf49zM1UPpY5STstZ-1" source="8RSlf49zM1UPpY5STstZ-4" target="8RSlf49zM1UPpY5STstZ-2" edge="1">
                    <mxGeometry relative="1" as="geometry"/>
                </mxCell>
                <mxCell id="8RSlf49zM1UPpY5STstZ-4" value="5" style="ellipse;whiteSpace=wrap;html=1;aspect=fixed;fontFamily=Fira Code;fillColor=#CC0000;" parent="8RSlf49zM1UPpY5STstZ-1" vertex="1">
                    <mxGeometry x="160" y="120" width="40" height="40" as="geometry"/>
                </mxCell>
                <mxCell id="8RSlf49zM1UPpY5STstZ-5" value="50" style="ellipse;whiteSpace=wrap;html=1;aspect=fixed;fontFamily=Fira Code;fillColor=#CC0000;" parent="8RSlf49zM1UPpY5STstZ-1" vertex="1">
                    <mxGeometry x="640" y="120" width="40" height="40" as="geometry"/>
                </mxCell>
            </root>
        </mxGraphModel>
    </diagram>
    <diagram name="Copy of Copy of Copy of Page-1" id="Ecm8NV4iVYj-IQKtPibd">
        <mxGraphModel dx="1402" dy="860" grid="1" gridSize="10" guides="1" tooltips="1" connect="1" arrows="1" fold="1" page="1" pageScale="1" pageWidth="800" pageHeight="800" math="0" shadow="0">
            <root>
                <mxCell id="r9YatsuHpmS77EYWU02H-0"/>
                <mxCell id="r9YatsuHpmS77EYWU02H-1" parent="r9YatsuHpmS77EYWU02H-0"/>
                <mxCell id="TCvZez4nWK3Y3d6aZCQh-2" style="edgeStyle=none;rounded=0;orthogonalLoop=1;jettySize=auto;html=1;exitX=1;exitY=1;exitDx=0;exitDy=0;entryX=0;entryY=0;entryDx=0;entryDy=0;endArrow=none;endFill=0;" parent="r9YatsuHpmS77EYWU02H-1" source="r9YatsuHpmS77EYWU02H-2" target="r9YatsuHpmS77EYWU02H-5" edge="1">
                    <mxGeometry relative="1" as="geometry"/>
                </mxCell>
                <mxCell id="r9YatsuHpmS77EYWU02H-2" value="10" style="ellipse;whiteSpace=wrap;html=1;aspect=fixed;fontFamily=Fira Code;" parent="r9YatsuHpmS77EYWU02H-1" vertex="1">
                    <mxGeometry x="400" y="40" width="40" height="40" as="geometry"/>
                </mxCell>
                <mxCell id="TCvZez4nWK3Y3d6aZCQh-1" style="edgeStyle=none;rounded=0;orthogonalLoop=1;jettySize=auto;html=1;exitX=1;exitY=0;exitDx=0;exitDy=0;entryX=0;entryY=1;entryDx=0;entryDy=0;endArrow=none;endFill=0;" parent="r9YatsuHpmS77EYWU02H-1" source="r9YatsuHpmS77EYWU02H-4" target="r9YatsuHpmS77EYWU02H-2" edge="1">
                    <mxGeometry relative="1" as="geometry"/>
                </mxCell>
                <mxCell id="r9YatsuHpmS77EYWU02H-4" value="5" style="ellipse;whiteSpace=wrap;html=1;aspect=fixed;fontFamily=Fira Code;fillColor=#CC0000;" parent="r9YatsuHpmS77EYWU02H-1" vertex="1">
                    <mxGeometry x="160" y="120" width="40" height="40" as="geometry"/>
                </mxCell>
                <mxCell id="TCvZez4nWK3Y3d6aZCQh-4" style="edgeStyle=none;rounded=0;orthogonalLoop=1;jettySize=auto;html=1;exitX=0;exitY=1;exitDx=0;exitDy=0;entryX=1;entryY=0;entryDx=0;entryDy=0;endArrow=none;endFill=0;" parent="r9YatsuHpmS77EYWU02H-1" source="r9YatsuHpmS77EYWU02H-5" target="r9YatsuHpmS77EYWU02H-6" edge="1">
                    <mxGeometry relative="1" as="geometry"/>
                </mxCell>
                <mxCell id="r9YatsuHpmS77EYWU02H-5" value="50" style="ellipse;whiteSpace=wrap;html=1;aspect=fixed;fontFamily=Fira Code;fillColor=#CC0000;" parent="r9YatsuHpmS77EYWU02H-1" vertex="1">
                    <mxGeometry x="640" y="120" width="40" height="40" as="geometry"/>
                </mxCell>
                <mxCell id="r9YatsuHpmS77EYWU02H-6" value="35" style="ellipse;whiteSpace=wrap;html=1;aspect=fixed;fontFamily=Fira Code;fillColor=#CC0000;" parent="r9YatsuHpmS77EYWU02H-1" vertex="1">
                    <mxGeometry x="440" y="200" width="40" height="40" as="geometry"/>
                </mxCell>
            </root>
        </mxGraphModel>
    </diagram>
    <diagram name="Copy of Copy of Copy of Copy of Page-1" id="uK9ta46WA9t9XBEBvpsx">
        <mxGraphModel dx="1402" dy="860" grid="1" gridSize="10" guides="1" tooltips="1" connect="1" arrows="1" fold="1" page="1" pageScale="1" pageWidth="800" pageHeight="800" math="0" shadow="0">
            <root>
                <mxCell id="2p7sUTeEPXFh5moKXErW-0"/>
                <mxCell id="2p7sUTeEPXFh5moKXErW-1" parent="2p7sUTeEPXFh5moKXErW-0"/>
                <mxCell id="2p7sUTeEPXFh5moKXErW-2" style="edgeStyle=none;rounded=0;orthogonalLoop=1;jettySize=auto;html=1;exitX=1;exitY=1;exitDx=0;exitDy=0;entryX=0;entryY=0;entryDx=0;entryDy=0;endArrow=none;endFill=0;" parent="2p7sUTeEPXFh5moKXErW-1" source="2p7sUTeEPXFh5moKXErW-3" target="2p7sUTeEPXFh5moKXErW-8" edge="1">
                    <mxGeometry relative="1" as="geometry"/>
                </mxCell>
                <mxCell id="2p7sUTeEPXFh5moKXErW-3" value="10" style="ellipse;whiteSpace=wrap;html=1;aspect=fixed;fontFamily=Fira Code;fillColor=#CC0000;" parent="2p7sUTeEPXFh5moKXErW-1" vertex="1">
                    <mxGeometry x="400" y="40" width="40" height="40" as="geometry"/>
                </mxCell>
                <mxCell id="2p7sUTeEPXFh5moKXErW-5" style="edgeStyle=none;rounded=0;orthogonalLoop=1;jettySize=auto;html=1;exitX=1;exitY=0;exitDx=0;exitDy=0;entryX=0;entryY=1;entryDx=0;entryDy=0;endArrow=none;endFill=0;" parent="2p7sUTeEPXFh5moKXErW-1" source="2p7sUTeEPXFh5moKXErW-6" target="2p7sUTeEPXFh5moKXErW-3" edge="1">
                    <mxGeometry relative="1" as="geometry"/>
                </mxCell>
                <mxCell id="2p7sUTeEPXFh5moKXErW-6" value="5" style="ellipse;whiteSpace=wrap;html=1;aspect=fixed;fontFamily=Fira Code;fillColor=#000000;" parent="2p7sUTeEPXFh5moKXErW-1" vertex="1">
                    <mxGeometry x="160" y="120" width="40" height="40" as="geometry"/>
                </mxCell>
                <mxCell id="2p7sUTeEPXFh5moKXErW-7" style="edgeStyle=none;rounded=0;orthogonalLoop=1;jettySize=auto;html=1;exitX=0;exitY=1;exitDx=0;exitDy=0;entryX=1;entryY=0;entryDx=0;entryDy=0;endArrow=none;endFill=0;" parent="2p7sUTeEPXFh5moKXErW-1" source="2p7sUTeEPXFh5moKXErW-8" target="2p7sUTeEPXFh5moKXErW-9" edge="1">
                    <mxGeometry relative="1" as="geometry"/>
                </mxCell>
                <mxCell id="2p7sUTeEPXFh5moKXErW-8" value="50" style="ellipse;whiteSpace=wrap;html=1;aspect=fixed;fontFamily=Fira Code;fillColor=#000000;" parent="2p7sUTeEPXFh5moKXErW-1" vertex="1">
                    <mxGeometry x="640" y="120" width="40" height="40" as="geometry"/>
                </mxCell>
                <mxCell id="2p7sUTeEPXFh5moKXErW-9" value="35" style="ellipse;whiteSpace=wrap;html=1;aspect=fixed;fontFamily=Fira Code;fillColor=#CC0000;" parent="2p7sUTeEPXFh5moKXErW-1" vertex="1">
                    <mxGeometry x="440" y="200" width="40" height="40" as="geometry"/>
                </mxCell>
            </root>
        </mxGraphModel>
    </diagram>
    <diagram name="Copy of Copy of Copy of Copy of Copy of Page-1" id="WKPAUVgSITOZGKOSAPvB">
        <mxGraphModel dx="1402" dy="860" grid="1" gridSize="10" guides="1" tooltips="1" connect="1" arrows="1" fold="1" page="1" pageScale="1" pageWidth="800" pageHeight="800" math="0" shadow="0">
            <root>
                <mxCell id="O9fKNXpY5sU62l5rHNfo-0"/>
                <mxCell id="O9fKNXpY5sU62l5rHNfo-1" parent="O9fKNXpY5sU62l5rHNfo-0"/>
                <mxCell id="O9fKNXpY5sU62l5rHNfo-2" style="edgeStyle=none;rounded=0;orthogonalLoop=1;jettySize=auto;html=1;exitX=1;exitY=1;exitDx=0;exitDy=0;entryX=0;entryY=0;entryDx=0;entryDy=0;endArrow=none;endFill=0;" parent="O9fKNXpY5sU62l5rHNfo-1" source="O9fKNXpY5sU62l5rHNfo-3" target="O9fKNXpY5sU62l5rHNfo-8" edge="1">
                    <mxGeometry relative="1" as="geometry"/>
                </mxCell>
                <mxCell id="O9fKNXpY5sU62l5rHNfo-3" value="10" style="ellipse;whiteSpace=wrap;html=1;aspect=fixed;fontFamily=Fira Code;fillColor=#000000;" parent="O9fKNXpY5sU62l5rHNfo-1" vertex="1">
                    <mxGeometry x="400" y="40" width="40" height="40" as="geometry"/>
                </mxCell>
                <mxCell id="O9fKNXpY5sU62l5rHNfo-5" style="edgeStyle=none;rounded=0;orthogonalLoop=1;jettySize=auto;html=1;exitX=1;exitY=0;exitDx=0;exitDy=0;entryX=0;entryY=1;entryDx=0;entryDy=0;endArrow=none;endFill=0;" parent="O9fKNXpY5sU62l5rHNfo-1" source="O9fKNXpY5sU62l5rHNfo-6" target="O9fKNXpY5sU62l5rHNfo-3" edge="1">
                    <mxGeometry relative="1" as="geometry"/>
                </mxCell>
                <mxCell id="O9fKNXpY5sU62l5rHNfo-6" value="5" style="ellipse;whiteSpace=wrap;html=1;aspect=fixed;fontFamily=Fira Code;fillColor=#000000;" parent="O9fKNXpY5sU62l5rHNfo-1" vertex="1">
                    <mxGeometry x="160" y="120" width="40" height="40" as="geometry"/>
                </mxCell>
                <mxCell id="O9fKNXpY5sU62l5rHNfo-7" style="edgeStyle=none;rounded=0;orthogonalLoop=1;jettySize=auto;html=1;exitX=0;exitY=1;exitDx=0;exitDy=0;entryX=1;entryY=0;entryDx=0;entryDy=0;endArrow=none;endFill=0;" parent="O9fKNXpY5sU62l5rHNfo-1" source="O9fKNXpY5sU62l5rHNfo-8" target="O9fKNXpY5sU62l5rHNfo-9" edge="1">
                    <mxGeometry relative="1" as="geometry"/>
                </mxCell>
                <mxCell id="O9fKNXpY5sU62l5rHNfo-8" value="50" style="ellipse;whiteSpace=wrap;html=1;aspect=fixed;fontFamily=Fira Code;fillColor=#000000;" parent="O9fKNXpY5sU62l5rHNfo-1" vertex="1">
                    <mxGeometry x="640" y="120" width="40" height="40" as="geometry"/>
                </mxCell>
                <mxCell id="O9fKNXpY5sU62l5rHNfo-9" value="35" style="ellipse;whiteSpace=wrap;html=1;aspect=fixed;fontFamily=Fira Code;fillColor=#CC0000;" parent="O9fKNXpY5sU62l5rHNfo-1" vertex="1">
                    <mxGeometry x="440" y="200" width="40" height="40" as="geometry"/>
                </mxCell>
            </root>
        </mxGraphModel>
    </diagram>
    <diagram name="Copy of Copy of Copy of Copy of Copy of Copy of Page-1" id="51V-4derKteREZmfqzUB">
        <mxGraphModel dx="1402" dy="860" grid="1" gridSize="10" guides="1" tooltips="1" connect="1" arrows="1" fold="1" page="1" pageScale="1" pageWidth="800" pageHeight="800" math="0" shadow="0">
            <root>
                <mxCell id="Szy-Pjko1p97Ts5HPO_L-0"/>
                <mxCell id="Szy-Pjko1p97Ts5HPO_L-1" parent="Szy-Pjko1p97Ts5HPO_L-0"/>
                <mxCell id="Szy-Pjko1p97Ts5HPO_L-2" style="edgeStyle=none;rounded=0;orthogonalLoop=1;jettySize=auto;html=1;exitX=1;exitY=1;exitDx=0;exitDy=0;entryX=0;entryY=0;entryDx=0;entryDy=0;endArrow=none;endFill=0;" parent="Szy-Pjko1p97Ts5HPO_L-1" source="Szy-Pjko1p97Ts5HPO_L-3" target="Szy-Pjko1p97Ts5HPO_L-8" edge="1">
                    <mxGeometry relative="1" as="geometry"/>
                </mxCell>
                <mxCell id="Szy-Pjko1p97Ts5HPO_L-3" value="10" style="ellipse;whiteSpace=wrap;html=1;aspect=fixed;fontFamily=Fira Code;fillColor=#000000;" parent="Szy-Pjko1p97Ts5HPO_L-1" vertex="1">
                    <mxGeometry x="400" y="40" width="40" height="40" as="geometry"/>
                </mxCell>
                <mxCell id="Szy-Pjko1p97Ts5HPO_L-5" style="edgeStyle=none;rounded=0;orthogonalLoop=1;jettySize=auto;html=1;exitX=1;exitY=0;exitDx=0;exitDy=0;entryX=0;entryY=1;entryDx=0;entryDy=0;endArrow=none;endFill=0;" parent="Szy-Pjko1p97Ts5HPO_L-1" source="Szy-Pjko1p97Ts5HPO_L-6" target="Szy-Pjko1p97Ts5HPO_L-3" edge="1">
                    <mxGeometry relative="1" as="geometry"/>
                </mxCell>
                <mxCell id="Szy-Pjko1p97Ts5HPO_L-6" value="5" style="ellipse;whiteSpace=wrap;html=1;aspect=fixed;fontFamily=Fira Code;fillColor=#000000;" parent="Szy-Pjko1p97Ts5HPO_L-1" vertex="1">
                    <mxGeometry x="160" y="120" width="40" height="40" as="geometry"/>
                </mxCell>
                <mxCell id="Szy-Pjko1p97Ts5HPO_L-7" style="edgeStyle=none;rounded=0;orthogonalLoop=1;jettySize=auto;html=1;exitX=0;exitY=1;exitDx=0;exitDy=0;entryX=1;entryY=0;entryDx=0;entryDy=0;endArrow=none;endFill=0;" parent="Szy-Pjko1p97Ts5HPO_L-1" source="Szy-Pjko1p97Ts5HPO_L-8" target="Szy-Pjko1p97Ts5HPO_L-9" edge="1">
                    <mxGeometry relative="1" as="geometry"/>
                </mxCell>
                <mxCell id="Szy-Pjko1p97Ts5HPO_L-8" value="50" style="ellipse;whiteSpace=wrap;html=1;aspect=fixed;fontFamily=Fira Code;fillColor=#000000;" parent="Szy-Pjko1p97Ts5HPO_L-1" vertex="1">
                    <mxGeometry x="640" y="120" width="40" height="40" as="geometry"/>
                </mxCell>
                <mxCell id="Szy-Pjko1p97Ts5HPO_L-11" style="edgeStyle=none;rounded=0;orthogonalLoop=1;jettySize=auto;html=1;exitX=1;exitY=1;exitDx=0;exitDy=0;entryX=0;entryY=0;entryDx=0;entryDy=0;endArrow=none;endFill=0;" parent="Szy-Pjko1p97Ts5HPO_L-1" source="Szy-Pjko1p97Ts5HPO_L-9" target="Szy-Pjko1p97Ts5HPO_L-10" edge="1">
                    <mxGeometry relative="1" as="geometry"/>
                </mxCell>
                <mxCell id="Szy-Pjko1p97Ts5HPO_L-9" value="35" style="ellipse;whiteSpace=wrap;html=1;aspect=fixed;fontFamily=Fira Code;fillColor=#CC0000;" parent="Szy-Pjko1p97Ts5HPO_L-1" vertex="1">
                    <mxGeometry x="440" y="200" width="40" height="40" as="geometry"/>
                </mxCell>
                <mxCell id="Szy-Pjko1p97Ts5HPO_L-10" value="40" style="ellipse;whiteSpace=wrap;html=1;aspect=fixed;fontFamily=Fira Code;fillColor=#CC0000;" parent="Szy-Pjko1p97Ts5HPO_L-1" vertex="1">
                    <mxGeometry x="600" y="280" width="40" height="40" as="geometry"/>
                </mxCell>
            </root>
        </mxGraphModel>
    </diagram>
    <diagram name="Copy of Copy of Copy of Copy of Copy of Copy of Copy of Page-1" id="ncAfU-oIOLjRGeUzvrzE">
        <mxGraphModel dx="1402" dy="860" grid="1" gridSize="10" guides="1" tooltips="1" connect="1" arrows="1" fold="1" page="1" pageScale="1" pageWidth="800" pageHeight="800" math="0" shadow="0">
            <root>
                <mxCell id="58jiuUU_fbMzxDgRduyy-0"/>
                <mxCell id="58jiuUU_fbMzxDgRduyy-1" parent="58jiuUU_fbMzxDgRduyy-0"/>
                <mxCell id="58jiuUU_fbMzxDgRduyy-2" style="edgeStyle=none;rounded=0;orthogonalLoop=1;jettySize=auto;html=1;exitX=1;exitY=1;exitDx=0;exitDy=0;entryX=0;entryY=0;entryDx=0;entryDy=0;endArrow=none;endFill=0;" parent="58jiuUU_fbMzxDgRduyy-1" source="58jiuUU_fbMzxDgRduyy-3" target="58jiuUU_fbMzxDgRduyy-8" edge="1">
                    <mxGeometry relative="1" as="geometry"/>
                </mxCell>
                <mxCell id="58jiuUU_fbMzxDgRduyy-3" value="10" style="ellipse;whiteSpace=wrap;html=1;aspect=fixed;fontFamily=Fira Code;fillColor=#000000;" parent="58jiuUU_fbMzxDgRduyy-1" vertex="1">
                    <mxGeometry x="400" y="40" width="40" height="40" as="geometry"/>
                </mxCell>
                <mxCell id="58jiuUU_fbMzxDgRduyy-5" style="edgeStyle=none;rounded=0;orthogonalLoop=1;jettySize=auto;html=1;exitX=1;exitY=0;exitDx=0;exitDy=0;entryX=0;entryY=1;entryDx=0;entryDy=0;endArrow=none;endFill=0;" parent="58jiuUU_fbMzxDgRduyy-1" source="58jiuUU_fbMzxDgRduyy-6" target="58jiuUU_fbMzxDgRduyy-3" edge="1">
                    <mxGeometry relative="1" as="geometry"/>
                </mxCell>
                <mxCell id="58jiuUU_fbMzxDgRduyy-6" value="5" style="ellipse;whiteSpace=wrap;html=1;aspect=fixed;fontFamily=Fira Code;fillColor=#000000;" parent="58jiuUU_fbMzxDgRduyy-1" vertex="1">
                    <mxGeometry x="160" y="120" width="40" height="40" as="geometry"/>
                </mxCell>
                <mxCell id="58jiuUU_fbMzxDgRduyy-7" style="edgeStyle=none;rounded=0;orthogonalLoop=1;jettySize=auto;html=1;exitX=0;exitY=1;exitDx=0;exitDy=0;entryX=1;entryY=0;entryDx=0;entryDy=0;endArrow=none;endFill=0;" parent="58jiuUU_fbMzxDgRduyy-1" source="58jiuUU_fbMzxDgRduyy-8" target="58jiuUU_fbMzxDgRduyy-10" edge="1">
                    <mxGeometry relative="1" as="geometry"/>
                </mxCell>
                <mxCell id="58jiuUU_fbMzxDgRduyy-8" value="50" style="ellipse;whiteSpace=wrap;html=1;aspect=fixed;fontFamily=Fira Code;fillColor=#000000;" parent="58jiuUU_fbMzxDgRduyy-1" vertex="1">
                    <mxGeometry x="640" y="120" width="40" height="40" as="geometry"/>
                </mxCell>
                <mxCell id="58jiuUU_fbMzxDgRduyy-9" style="edgeStyle=none;rounded=0;orthogonalLoop=1;jettySize=auto;html=1;exitX=0;exitY=1;exitDx=0;exitDy=0;entryX=1;entryY=0;entryDx=0;entryDy=0;endArrow=none;endFill=0;" parent="58jiuUU_fbMzxDgRduyy-1" source="58jiuUU_fbMzxDgRduyy-10" target="58jiuUU_fbMzxDgRduyy-11" edge="1">
                    <mxGeometry relative="1" as="geometry"/>
                </mxCell>
                <mxCell id="58jiuUU_fbMzxDgRduyy-10" value="40" style="ellipse;whiteSpace=wrap;html=1;aspect=fixed;fontFamily=Fira Code;fillColor=#CC0000;" parent="58jiuUU_fbMzxDgRduyy-1" vertex="1">
                    <mxGeometry x="440" y="200" width="40" height="40" as="geometry"/>
                </mxCell>
                <mxCell id="58jiuUU_fbMzxDgRduyy-11" value="35" style="ellipse;whiteSpace=wrap;html=1;aspect=fixed;fontFamily=Fira Code;fillColor=#CC0000;" parent="58jiuUU_fbMzxDgRduyy-1" vertex="1">
                    <mxGeometry x="280" y="280" width="40" height="40" as="geometry"/>
                </mxCell>
            </root>
        </mxGraphModel>
    </diagram>
    <diagram name="Copy of Copy of Copy of Copy of Copy of Copy of Copy of Copy of Page-1" id="bJyaVTLgUeqYndw-9fIp">
        <mxGraphModel dx="1402" dy="860" grid="1" gridSize="10" guides="1" tooltips="1" connect="1" arrows="1" fold="1" page="1" pageScale="1" pageWidth="800" pageHeight="800" math="0" shadow="0">
            <root>
                <mxCell id="bNuwJNMrqxmBIqWrWLkE-0"/>
                <mxCell id="bNuwJNMrqxmBIqWrWLkE-1" parent="bNuwJNMrqxmBIqWrWLkE-0"/>
                <mxCell id="bNuwJNMrqxmBIqWrWLkE-2" style="edgeStyle=none;rounded=0;orthogonalLoop=1;jettySize=auto;html=1;exitX=1;exitY=1;exitDx=0;exitDy=0;entryX=0;entryY=0;entryDx=0;entryDy=0;endArrow=none;endFill=0;" parent="bNuwJNMrqxmBIqWrWLkE-1" source="bNuwJNMrqxmBIqWrWLkE-3" target="bNuwJNMrqxmBIqWrWLkE-8" edge="1">
                    <mxGeometry relative="1" as="geometry"/>
                </mxCell>
                <mxCell id="bNuwJNMrqxmBIqWrWLkE-3" value="10" style="ellipse;whiteSpace=wrap;html=1;aspect=fixed;fontFamily=Fira Code;fillColor=#000000;" parent="bNuwJNMrqxmBIqWrWLkE-1" vertex="1">
                    <mxGeometry x="400" y="40" width="40" height="40" as="geometry"/>
                </mxCell>
                <mxCell id="bNuwJNMrqxmBIqWrWLkE-5" style="edgeStyle=none;rounded=0;orthogonalLoop=1;jettySize=auto;html=1;exitX=1;exitY=0;exitDx=0;exitDy=0;entryX=0;entryY=1;entryDx=0;entryDy=0;endArrow=none;endFill=0;" parent="bNuwJNMrqxmBIqWrWLkE-1" source="bNuwJNMrqxmBIqWrWLkE-6" target="bNuwJNMrqxmBIqWrWLkE-3" edge="1">
                    <mxGeometry relative="1" as="geometry"/>
                </mxCell>
                <mxCell id="bNuwJNMrqxmBIqWrWLkE-6" value="5" style="ellipse;whiteSpace=wrap;html=1;aspect=fixed;fontFamily=Fira Code;fillColor=#000000;" parent="bNuwJNMrqxmBIqWrWLkE-1" vertex="1">
                    <mxGeometry x="160" y="120" width="40" height="40" as="geometry"/>
                </mxCell>
                <mxCell id="bNuwJNMrqxmBIqWrWLkE-7" style="edgeStyle=none;rounded=0;orthogonalLoop=1;jettySize=auto;html=1;exitX=0;exitY=1;exitDx=0;exitDy=0;entryX=1;entryY=0;entryDx=0;entryDy=0;endArrow=none;endFill=0;" parent="bNuwJNMrqxmBIqWrWLkE-1" source="bNuwJNMrqxmBIqWrWLkE-8" target="bNuwJNMrqxmBIqWrWLkE-10" edge="1">
                    <mxGeometry relative="1" as="geometry"/>
                </mxCell>
                <mxCell id="mKT40uc_v8_rDxIHz2_O-1" style="edgeStyle=none;rounded=0;orthogonalLoop=1;jettySize=auto;html=1;exitX=1;exitY=1;exitDx=0;exitDy=0;entryX=0;entryY=0;entryDx=0;entryDy=0;endArrow=none;endFill=0;" parent="bNuwJNMrqxmBIqWrWLkE-1" source="bNuwJNMrqxmBIqWrWLkE-8" target="mKT40uc_v8_rDxIHz2_O-0" edge="1">
                    <mxGeometry relative="1" as="geometry"/>
                </mxCell>
                <mxCell id="bNuwJNMrqxmBIqWrWLkE-8" value="40" style="ellipse;whiteSpace=wrap;html=1;aspect=fixed;fontFamily=Fira Code;fillColor=#CC0000;" parent="bNuwJNMrqxmBIqWrWLkE-1" vertex="1">
                    <mxGeometry x="640" y="120" width="40" height="40" as="geometry"/>
                </mxCell>
                <mxCell id="bNuwJNMrqxmBIqWrWLkE-10" value="35" style="ellipse;whiteSpace=wrap;html=1;aspect=fixed;fontFamily=Fira Code;fillColor=#CC0000;" parent="bNuwJNMrqxmBIqWrWLkE-1" vertex="1">
                    <mxGeometry x="440" y="200" width="40" height="40" as="geometry"/>
                </mxCell>
                <mxCell id="mKT40uc_v8_rDxIHz2_O-0" value="50" style="ellipse;whiteSpace=wrap;html=1;aspect=fixed;fontFamily=Fira Code;fillColor=#000000;" parent="bNuwJNMrqxmBIqWrWLkE-1" vertex="1">
                    <mxGeometry x="840" y="200" width="40" height="40" as="geometry"/>
                </mxCell>
            </root>
        </mxGraphModel>
    </diagram>
    <diagram name="Copy of Copy of Copy of Copy of Copy of Copy of Copy of Copy of Copy of Page-1" id="7P37mbI51jmu7XL8tXIF">
        <mxGraphModel dx="1402" dy="860" grid="1" gridSize="10" guides="1" tooltips="1" connect="1" arrows="1" fold="1" page="1" pageScale="1" pageWidth="800" pageHeight="800" math="0" shadow="0">
            <root>
                <mxCell id="YLuaMjoMKzVmLaiWfwZT-0"/>
                <mxCell id="YLuaMjoMKzVmLaiWfwZT-1" parent="YLuaMjoMKzVmLaiWfwZT-0"/>
                <mxCell id="YLuaMjoMKzVmLaiWfwZT-2" style="edgeStyle=none;rounded=0;orthogonalLoop=1;jettySize=auto;html=1;exitX=1;exitY=1;exitDx=0;exitDy=0;entryX=0;entryY=0;entryDx=0;entryDy=0;endArrow=none;endFill=0;" parent="YLuaMjoMKzVmLaiWfwZT-1" source="YLuaMjoMKzVmLaiWfwZT-3" target="YLuaMjoMKzVmLaiWfwZT-9" edge="1">
                    <mxGeometry relative="1" as="geometry"/>
                </mxCell>
                <mxCell id="YLuaMjoMKzVmLaiWfwZT-3" value="10" style="ellipse;whiteSpace=wrap;html=1;aspect=fixed;fontFamily=Fira Code;fillColor=#000000;" parent="YLuaMjoMKzVmLaiWfwZT-1" vertex="1">
                    <mxGeometry x="400" y="40" width="40" height="40" as="geometry"/>
                </mxCell>
                <mxCell id="YLuaMjoMKzVmLaiWfwZT-5" style="edgeStyle=none;rounded=0;orthogonalLoop=1;jettySize=auto;html=1;exitX=1;exitY=0;exitDx=0;exitDy=0;entryX=0;entryY=1;entryDx=0;entryDy=0;endArrow=none;endFill=0;" parent="YLuaMjoMKzVmLaiWfwZT-1" source="YLuaMjoMKzVmLaiWfwZT-6" target="YLuaMjoMKzVmLaiWfwZT-3" edge="1">
                    <mxGeometry relative="1" as="geometry"/>
                </mxCell>
                <mxCell id="YLuaMjoMKzVmLaiWfwZT-6" value="5" style="ellipse;whiteSpace=wrap;html=1;aspect=fixed;fontFamily=Fira Code;fillColor=#000000;" parent="YLuaMjoMKzVmLaiWfwZT-1" vertex="1">
                    <mxGeometry x="160" y="120" width="40" height="40" as="geometry"/>
                </mxCell>
                <mxCell id="YLuaMjoMKzVmLaiWfwZT-7" style="edgeStyle=none;rounded=0;orthogonalLoop=1;jettySize=auto;html=1;exitX=0;exitY=1;exitDx=0;exitDy=0;entryX=1;entryY=0;entryDx=0;entryDy=0;endArrow=none;endFill=0;" parent="YLuaMjoMKzVmLaiWfwZT-1" source="YLuaMjoMKzVmLaiWfwZT-9" target="YLuaMjoMKzVmLaiWfwZT-10" edge="1">
                    <mxGeometry relative="1" as="geometry"/>
                </mxCell>
                <mxCell id="YLuaMjoMKzVmLaiWfwZT-8" style="edgeStyle=none;rounded=0;orthogonalLoop=1;jettySize=auto;html=1;exitX=1;exitY=1;exitDx=0;exitDy=0;entryX=0;entryY=0;entryDx=0;entryDy=0;endArrow=none;endFill=0;" parent="YLuaMjoMKzVmLaiWfwZT-1" source="YLuaMjoMKzVmLaiWfwZT-9" target="YLuaMjoMKzVmLaiWfwZT-11" edge="1">
                    <mxGeometry relative="1" as="geometry"/>
                </mxCell>
                <mxCell id="YLuaMjoMKzVmLaiWfwZT-9" value="40" style="ellipse;whiteSpace=wrap;html=1;aspect=fixed;fontFamily=Fira Code;fillColor=#000000;" parent="YLuaMjoMKzVmLaiWfwZT-1" vertex="1">
                    <mxGeometry x="640" y="120" width="40" height="40" as="geometry"/>
                </mxCell>
                <mxCell id="YLuaMjoMKzVmLaiWfwZT-10" value="35" style="ellipse;whiteSpace=wrap;html=1;aspect=fixed;fontFamily=Fira Code;fillColor=#CC0000;" parent="YLuaMjoMKzVmLaiWfwZT-1" vertex="1">
                    <mxGeometry x="440" y="200" width="40" height="40" as="geometry"/>
                </mxCell>
                <mxCell id="YLuaMjoMKzVmLaiWfwZT-11" value="50" style="ellipse;whiteSpace=wrap;html=1;aspect=fixed;fontFamily=Fira Code;fillColor=#CC0000;" parent="YLuaMjoMKzVmLaiWfwZT-1" vertex="1">
                    <mxGeometry x="840" y="200" width="40" height="40" as="geometry"/>
                </mxCell>
            </root>
        </mxGraphModel>
    </diagram>
    <diagram name="Copy of Copy of Copy of Copy of Copy of Copy of Copy of Copy of Copy of Copy of Page-1" id="OnnNcHck-aI7vsV2QSXw">
        <mxGraphModel dx="1402" dy="860" grid="1" gridSize="10" guides="1" tooltips="1" connect="1" arrows="1" fold="1" page="1" pageScale="1" pageWidth="800" pageHeight="800" math="0" shadow="0">
            <root>
                <mxCell id="DV7FVClSz_1J-s4JOoUA-0"/>
                <mxCell id="DV7FVClSz_1J-s4JOoUA-1" parent="DV7FVClSz_1J-s4JOoUA-0"/>
                <mxCell id="DV7FVClSz_1J-s4JOoUA-2" style="edgeStyle=none;rounded=0;orthogonalLoop=1;jettySize=auto;html=1;exitX=1;exitY=1;exitDx=0;exitDy=0;entryX=0;entryY=0;entryDx=0;entryDy=0;endArrow=none;endFill=0;" parent="DV7FVClSz_1J-s4JOoUA-1" source="DV7FVClSz_1J-s4JOoUA-3" target="DV7FVClSz_1J-s4JOoUA-9" edge="1">
                    <mxGeometry relative="1" as="geometry"/>
                </mxCell>
                <mxCell id="DV7FVClSz_1J-s4JOoUA-3" value="10" style="ellipse;whiteSpace=wrap;html=1;aspect=fixed;fontFamily=Fira Code;fillColor=#000000;" parent="DV7FVClSz_1J-s4JOoUA-1" vertex="1">
                    <mxGeometry x="400" y="40" width="40" height="40" as="geometry"/>
                </mxCell>
                <mxCell id="DV7FVClSz_1J-s4JOoUA-5" style="edgeStyle=none;rounded=0;orthogonalLoop=1;jettySize=auto;html=1;exitX=1;exitY=0;exitDx=0;exitDy=0;entryX=0;entryY=1;entryDx=0;entryDy=0;endArrow=none;endFill=0;" parent="DV7FVClSz_1J-s4JOoUA-1" source="DV7FVClSz_1J-s4JOoUA-6" target="DV7FVClSz_1J-s4JOoUA-3" edge="1">
                    <mxGeometry relative="1" as="geometry"/>
                </mxCell>
                <mxCell id="DV7FVClSz_1J-s4JOoUA-6" value="5" style="ellipse;whiteSpace=wrap;html=1;aspect=fixed;fontFamily=Fira Code;fillColor=#000000;" parent="DV7FVClSz_1J-s4JOoUA-1" vertex="1">
                    <mxGeometry x="160" y="120" width="40" height="40" as="geometry"/>
                </mxCell>
                <mxCell id="DV7FVClSz_1J-s4JOoUA-7" style="edgeStyle=none;rounded=0;orthogonalLoop=1;jettySize=auto;html=1;exitX=0;exitY=1;exitDx=0;exitDy=0;entryX=1;entryY=0;entryDx=0;entryDy=0;endArrow=none;endFill=0;" parent="DV7FVClSz_1J-s4JOoUA-1" source="DV7FVClSz_1J-s4JOoUA-9" target="DV7FVClSz_1J-s4JOoUA-10" edge="1">
                    <mxGeometry relative="1" as="geometry"/>
                </mxCell>
                <mxCell id="DV7FVClSz_1J-s4JOoUA-8" style="edgeStyle=none;rounded=0;orthogonalLoop=1;jettySize=auto;html=1;exitX=1;exitY=1;exitDx=0;exitDy=0;entryX=0;entryY=0;entryDx=0;entryDy=0;endArrow=none;endFill=0;" parent="DV7FVClSz_1J-s4JOoUA-1" source="DV7FVClSz_1J-s4JOoUA-9" target="DV7FVClSz_1J-s4JOoUA-11" edge="1">
                    <mxGeometry relative="1" as="geometry"/>
                </mxCell>
                <mxCell id="DV7FVClSz_1J-s4JOoUA-9" value="40" style="ellipse;whiteSpace=wrap;html=1;aspect=fixed;fontFamily=Fira Code;fillColor=#000000;" parent="DV7FVClSz_1J-s4JOoUA-1" vertex="1">
                    <mxGeometry x="640" y="120" width="40" height="40" as="geometry"/>
                </mxCell>
                <mxCell id="9fH6zCj_m4Lsjq26Mft1-1" style="edgeStyle=none;rounded=0;orthogonalLoop=1;jettySize=auto;html=1;exitX=0;exitY=1;exitDx=0;exitDy=0;entryX=1;entryY=0;entryDx=0;entryDy=0;endArrow=none;endFill=0;" parent="DV7FVClSz_1J-s4JOoUA-1" source="DV7FVClSz_1J-s4JOoUA-10" target="9fH6zCj_m4Lsjq26Mft1-0" edge="1">
                    <mxGeometry relative="1" as="geometry"/>
                </mxCell>
                <mxCell id="DV7FVClSz_1J-s4JOoUA-10" value="35" style="ellipse;whiteSpace=wrap;html=1;aspect=fixed;fontFamily=Fira Code;fillColor=#CC0000;" parent="DV7FVClSz_1J-s4JOoUA-1" vertex="1">
                    <mxGeometry x="440" y="200" width="40" height="40" as="geometry"/>
                </mxCell>
                <mxCell id="DV7FVClSz_1J-s4JOoUA-11" value="50" style="ellipse;whiteSpace=wrap;html=1;aspect=fixed;fontFamily=Fira Code;fillColor=#CC0000;" parent="DV7FVClSz_1J-s4JOoUA-1" vertex="1">
                    <mxGeometry x="840" y="200" width="40" height="40" as="geometry"/>
                </mxCell>
                <mxCell id="9fH6zCj_m4Lsjq26Mft1-0" value="15" style="ellipse;whiteSpace=wrap;html=1;aspect=fixed;fontFamily=Fira Code;fillColor=#CC0000;" parent="DV7FVClSz_1J-s4JOoUA-1" vertex="1">
                    <mxGeometry x="280" y="280" width="40" height="40" as="geometry"/>
                </mxCell>
            </root>
        </mxGraphModel>
    </diagram>
    <diagram name="Copy of Copy of Copy of Copy of Copy of Copy of Copy of Copy of Copy of Copy of Copy of Page-1" id="XNMXNlivgZcdD2Yh8GPv">
        <mxGraphModel dx="1402" dy="860" grid="1" gridSize="10" guides="1" tooltips="1" connect="1" arrows="1" fold="1" page="1" pageScale="1" pageWidth="800" pageHeight="800" math="0" shadow="0">
            <root>
                <mxCell id="k3SfcE_JRs3N74B_x5y3-0"/>
                <mxCell id="k3SfcE_JRs3N74B_x5y3-1" parent="k3SfcE_JRs3N74B_x5y3-0"/>
                <mxCell id="k3SfcE_JRs3N74B_x5y3-2" style="edgeStyle=none;rounded=0;orthogonalLoop=1;jettySize=auto;html=1;exitX=1;exitY=1;exitDx=0;exitDy=0;entryX=0;entryY=0;entryDx=0;entryDy=0;endArrow=none;endFill=0;" parent="k3SfcE_JRs3N74B_x5y3-1" source="k3SfcE_JRs3N74B_x5y3-3" target="k3SfcE_JRs3N74B_x5y3-9" edge="1">
                    <mxGeometry relative="1" as="geometry"/>
                </mxCell>
                <mxCell id="k3SfcE_JRs3N74B_x5y3-3" value="10" style="ellipse;whiteSpace=wrap;html=1;aspect=fixed;fontFamily=Fira Code;fillColor=#000000;" parent="k3SfcE_JRs3N74B_x5y3-1" vertex="1">
                    <mxGeometry x="400" y="40" width="40" height="40" as="geometry"/>
                </mxCell>
                <mxCell id="k3SfcE_JRs3N74B_x5y3-5" style="edgeStyle=none;rounded=0;orthogonalLoop=1;jettySize=auto;html=1;exitX=1;exitY=0;exitDx=0;exitDy=0;entryX=0;entryY=1;entryDx=0;entryDy=0;endArrow=none;endFill=0;" parent="k3SfcE_JRs3N74B_x5y3-1" source="k3SfcE_JRs3N74B_x5y3-6" target="k3SfcE_JRs3N74B_x5y3-3" edge="1">
                    <mxGeometry relative="1" as="geometry"/>
                </mxCell>
                <mxCell id="k3SfcE_JRs3N74B_x5y3-6" value="5" style="ellipse;whiteSpace=wrap;html=1;aspect=fixed;fontFamily=Fira Code;fillColor=#000000;" parent="k3SfcE_JRs3N74B_x5y3-1" vertex="1">
                    <mxGeometry x="160" y="120" width="40" height="40" as="geometry"/>
                </mxCell>
                <mxCell id="k3SfcE_JRs3N74B_x5y3-7" style="edgeStyle=none;rounded=0;orthogonalLoop=1;jettySize=auto;html=1;exitX=0;exitY=1;exitDx=0;exitDy=0;entryX=1;entryY=0;entryDx=0;entryDy=0;endArrow=none;endFill=0;" parent="k3SfcE_JRs3N74B_x5y3-1" source="k3SfcE_JRs3N74B_x5y3-9" target="k3SfcE_JRs3N74B_x5y3-11" edge="1">
                    <mxGeometry relative="1" as="geometry"/>
                </mxCell>
                <mxCell id="k3SfcE_JRs3N74B_x5y3-8" style="edgeStyle=none;rounded=0;orthogonalLoop=1;jettySize=auto;html=1;exitX=1;exitY=1;exitDx=0;exitDy=0;entryX=0;entryY=0;entryDx=0;entryDy=0;endArrow=none;endFill=0;" parent="k3SfcE_JRs3N74B_x5y3-1" source="k3SfcE_JRs3N74B_x5y3-9" target="k3SfcE_JRs3N74B_x5y3-12" edge="1">
                    <mxGeometry relative="1" as="geometry"/>
                </mxCell>
                <mxCell id="k3SfcE_JRs3N74B_x5y3-9" value="40" style="ellipse;whiteSpace=wrap;html=1;aspect=fixed;fontFamily=Fira Code;fillColor=#CC0000;" parent="k3SfcE_JRs3N74B_x5y3-1" vertex="1">
                    <mxGeometry x="640" y="120" width="40" height="40" as="geometry"/>
                </mxCell>
                <mxCell id="k3SfcE_JRs3N74B_x5y3-10" style="edgeStyle=none;rounded=0;orthogonalLoop=1;jettySize=auto;html=1;exitX=0;exitY=1;exitDx=0;exitDy=0;entryX=1;entryY=0;entryDx=0;entryDy=0;endArrow=none;endFill=0;" parent="k3SfcE_JRs3N74B_x5y3-1" source="k3SfcE_JRs3N74B_x5y3-11" target="k3SfcE_JRs3N74B_x5y3-13" edge="1">
                    <mxGeometry relative="1" as="geometry"/>
                </mxCell>
                <mxCell id="k3SfcE_JRs3N74B_x5y3-11" value="35" style="ellipse;whiteSpace=wrap;html=1;aspect=fixed;fontFamily=Fira Code;fillColor=#000000;" parent="k3SfcE_JRs3N74B_x5y3-1" vertex="1">
                    <mxGeometry x="440" y="200" width="40" height="40" as="geometry"/>
                </mxCell>
                <mxCell id="k3SfcE_JRs3N74B_x5y3-12" value="50" style="ellipse;whiteSpace=wrap;html=1;aspect=fixed;fontFamily=Fira Code;fillColor=#000000;" parent="k3SfcE_JRs3N74B_x5y3-1" vertex="1">
                    <mxGeometry x="840" y="200" width="40" height="40" as="geometry"/>
                </mxCell>
                <mxCell id="k3SfcE_JRs3N74B_x5y3-13" value="15" style="ellipse;whiteSpace=wrap;html=1;aspect=fixed;fontFamily=Fira Code;fillColor=#CC0000;" parent="k3SfcE_JRs3N74B_x5y3-1" vertex="1">
                    <mxGeometry x="280" y="280" width="40" height="40" as="geometry"/>
                </mxCell>
            </root>
        </mxGraphModel>
    </diagram>
    <diagram name="Copy of Copy of Copy of Copy of Copy of Copy of Copy of Copy of Copy of Copy of Copy of Copy of Page-1" id="Hap-DpvV_srHwSRPdAI0">
        <mxGraphModel dx="1402" dy="860" grid="1" gridSize="10" guides="1" tooltips="1" connect="1" arrows="1" fold="1" page="1" pageScale="1" pageWidth="800" pageHeight="800" math="0" shadow="0">
            <root>
                <mxCell id="7wLU7MX5goEc3HemNu---0"/>
                <mxCell id="7wLU7MX5goEc3HemNu---1" parent="7wLU7MX5goEc3HemNu---0"/>
                <mxCell id="7wLU7MX5goEc3HemNu---2" style="edgeStyle=none;rounded=0;orthogonalLoop=1;jettySize=auto;html=1;exitX=1;exitY=1;exitDx=0;exitDy=0;entryX=0;entryY=0;entryDx=0;entryDy=0;endArrow=none;endFill=0;" parent="7wLU7MX5goEc3HemNu---1" source="7wLU7MX5goEc3HemNu---3" target="7wLU7MX5goEc3HemNu---9" edge="1">
                    <mxGeometry relative="1" as="geometry"/>
                </mxCell>
                <mxCell id="7wLU7MX5goEc3HemNu---3" value="10" style="ellipse;whiteSpace=wrap;html=1;aspect=fixed;fontFamily=Fira Code;fillColor=#000000;" parent="7wLU7MX5goEc3HemNu---1" vertex="1">
                    <mxGeometry x="400" y="40" width="40" height="40" as="geometry"/>
                </mxCell>
                <mxCell id="7wLU7MX5goEc3HemNu---5" style="edgeStyle=none;rounded=0;orthogonalLoop=1;jettySize=auto;html=1;exitX=1;exitY=0;exitDx=0;exitDy=0;entryX=0;entryY=1;entryDx=0;entryDy=0;endArrow=none;endFill=0;" parent="7wLU7MX5goEc3HemNu---1" source="7wLU7MX5goEc3HemNu---6" target="7wLU7MX5goEc3HemNu---3" edge="1">
                    <mxGeometry relative="1" as="geometry"/>
                </mxCell>
                <mxCell id="7wLU7MX5goEc3HemNu---6" value="5" style="ellipse;whiteSpace=wrap;html=1;aspect=fixed;fontFamily=Fira Code;fillColor=#000000;" parent="7wLU7MX5goEc3HemNu---1" vertex="1">
                    <mxGeometry x="160" y="120" width="40" height="40" as="geometry"/>
                </mxCell>
                <mxCell id="7wLU7MX5goEc3HemNu---7" style="edgeStyle=none;rounded=0;orthogonalLoop=1;jettySize=auto;html=1;exitX=0;exitY=1;exitDx=0;exitDy=0;entryX=1;entryY=0;entryDx=0;entryDy=0;endArrow=none;endFill=0;" parent="7wLU7MX5goEc3HemNu---1" source="7wLU7MX5goEc3HemNu---9" target="7wLU7MX5goEc3HemNu---11" edge="1">
                    <mxGeometry relative="1" as="geometry"/>
                </mxCell>
                <mxCell id="7wLU7MX5goEc3HemNu---8" style="edgeStyle=none;rounded=0;orthogonalLoop=1;jettySize=auto;html=1;exitX=1;exitY=1;exitDx=0;exitDy=0;entryX=0;entryY=0;entryDx=0;entryDy=0;endArrow=none;endFill=0;" parent="7wLU7MX5goEc3HemNu---1" source="7wLU7MX5goEc3HemNu---9" target="7wLU7MX5goEc3HemNu---12" edge="1">
                    <mxGeometry relative="1" as="geometry"/>
                </mxCell>
                <mxCell id="7wLU7MX5goEc3HemNu---9" value="40" style="ellipse;whiteSpace=wrap;html=1;aspect=fixed;fontFamily=Fira Code;fillColor=#CC0000;" parent="7wLU7MX5goEc3HemNu---1" vertex="1">
                    <mxGeometry x="640" y="120" width="40" height="40" as="geometry"/>
                </mxCell>
                <mxCell id="7wLU7MX5goEc3HemNu---10" style="edgeStyle=none;rounded=0;orthogonalLoop=1;jettySize=auto;html=1;exitX=0;exitY=1;exitDx=0;exitDy=0;entryX=1;entryY=0;entryDx=0;entryDy=0;endArrow=none;endFill=0;" parent="7wLU7MX5goEc3HemNu---1" source="7wLU7MX5goEc3HemNu---11" target="7wLU7MX5goEc3HemNu---13" edge="1">
                    <mxGeometry relative="1" as="geometry"/>
                </mxCell>
                <mxCell id="7wLU7MX5goEc3HemNu---11" value="35" style="ellipse;whiteSpace=wrap;html=1;aspect=fixed;fontFamily=Fira Code;fillColor=#000000;" parent="7wLU7MX5goEc3HemNu---1" vertex="1">
                    <mxGeometry x="440" y="200" width="40" height="40" as="geometry"/>
                </mxCell>
                <mxCell id="7wLU7MX5goEc3HemNu---12" value="50" style="ellipse;whiteSpace=wrap;html=1;aspect=fixed;fontFamily=Fira Code;fillColor=#000000;" parent="7wLU7MX5goEc3HemNu---1" vertex="1">
                    <mxGeometry x="840" y="200" width="40" height="40" as="geometry"/>
                </mxCell>
                <mxCell id="7wLU7MX5goEc3HemNu---13" value="15" style="ellipse;whiteSpace=wrap;html=1;aspect=fixed;fontFamily=Fira Code;fillColor=#CC0000;" parent="7wLU7MX5goEc3HemNu---1" vertex="1">
                    <mxGeometry x="280" y="280" width="40" height="40" as="geometry"/>
                </mxCell>
                <mxCell id="7wLU7MX5goEc3HemNu---15" style="edgeStyle=none;rounded=0;orthogonalLoop=1;jettySize=auto;html=1;exitX=0;exitY=0;exitDx=0;exitDy=0;entryX=1;entryY=1;entryDx=0;entryDy=0;endArrow=none;endFill=0;" parent="7wLU7MX5goEc3HemNu---1" source="7wLU7MX5goEc3HemNu---14" target="7wLU7MX5goEc3HemNu---12" edge="1">
                    <mxGeometry relative="1" as="geometry"/>
                </mxCell>
                <mxCell id="7wLU7MX5goEc3HemNu---14" value="95" style="ellipse;whiteSpace=wrap;html=1;aspect=fixed;fontFamily=Fira Code;fillColor=#CC0000;" parent="7wLU7MX5goEc3HemNu---1" vertex="1">
                    <mxGeometry x="1000" y="280" width="40" height="40" as="geometry"/>
                </mxCell>
            </root>
        </mxGraphModel>
    </diagram>
    <diagram name="Copy of Copy of Copy of Copy of Copy of Copy of Copy of Copy of Copy of Copy of Copy of Copy of Copy of Page-1" id="gCJoUknef5qRDMInvkLf">
        <mxGraphModel dx="1402" dy="860" grid="1" gridSize="10" guides="1" tooltips="1" connect="1" arrows="1" fold="1" page="1" pageScale="1" pageWidth="800" pageHeight="800" math="0" shadow="0">
            <root>
                <mxCell id="c9CYjMaBg8nkQYY7aThV-0"/>
                <mxCell id="c9CYjMaBg8nkQYY7aThV-1" parent="c9CYjMaBg8nkQYY7aThV-0"/>
                <mxCell id="c9CYjMaBg8nkQYY7aThV-2" style="edgeStyle=none;rounded=0;orthogonalLoop=1;jettySize=auto;html=1;exitX=1;exitY=1;exitDx=0;exitDy=0;entryX=0;entryY=0;entryDx=0;entryDy=0;endArrow=none;endFill=0;" parent="c9CYjMaBg8nkQYY7aThV-1" source="c9CYjMaBg8nkQYY7aThV-3" target="c9CYjMaBg8nkQYY7aThV-9" edge="1">
                    <mxGeometry relative="1" as="geometry"/>
                </mxCell>
                <mxCell id="c9CYjMaBg8nkQYY7aThV-3" value="10" style="ellipse;whiteSpace=wrap;html=1;aspect=fixed;fontFamily=Fira Code;fillColor=#000000;" parent="c9CYjMaBg8nkQYY7aThV-1" vertex="1">
                    <mxGeometry x="400" y="40" width="40" height="40" as="geometry"/>
                </mxCell>
                <mxCell id="c9CYjMaBg8nkQYY7aThV-5" style="edgeStyle=none;rounded=0;orthogonalLoop=1;jettySize=auto;html=1;exitX=1;exitY=0;exitDx=0;exitDy=0;entryX=0;entryY=1;entryDx=0;entryDy=0;endArrow=none;endFill=0;" parent="c9CYjMaBg8nkQYY7aThV-1" source="c9CYjMaBg8nkQYY7aThV-6" target="c9CYjMaBg8nkQYY7aThV-3" edge="1">
                    <mxGeometry relative="1" as="geometry"/>
                </mxCell>
                <mxCell id="c9CYjMaBg8nkQYY7aThV-6" value="5" style="ellipse;whiteSpace=wrap;html=1;aspect=fixed;fontFamily=Fira Code;fillColor=#000000;" parent="c9CYjMaBg8nkQYY7aThV-1" vertex="1">
                    <mxGeometry x="160" y="120" width="40" height="40" as="geometry"/>
                </mxCell>
                <mxCell id="c9CYjMaBg8nkQYY7aThV-7" style="edgeStyle=none;rounded=0;orthogonalLoop=1;jettySize=auto;html=1;exitX=0;exitY=1;exitDx=0;exitDy=0;entryX=1;entryY=0;entryDx=0;entryDy=0;endArrow=none;endFill=0;" parent="c9CYjMaBg8nkQYY7aThV-1" source="c9CYjMaBg8nkQYY7aThV-9" target="c9CYjMaBg8nkQYY7aThV-11" edge="1">
                    <mxGeometry relative="1" as="geometry"/>
                </mxCell>
                <mxCell id="c9CYjMaBg8nkQYY7aThV-8" style="edgeStyle=none;rounded=0;orthogonalLoop=1;jettySize=auto;html=1;exitX=1;exitY=1;exitDx=0;exitDy=0;entryX=0;entryY=0;entryDx=0;entryDy=0;endArrow=none;endFill=0;" parent="c9CYjMaBg8nkQYY7aThV-1" source="c9CYjMaBg8nkQYY7aThV-9" target="c9CYjMaBg8nkQYY7aThV-12" edge="1">
                    <mxGeometry relative="1" as="geometry"/>
                </mxCell>
                <mxCell id="c9CYjMaBg8nkQYY7aThV-9" value="40" style="ellipse;whiteSpace=wrap;html=1;aspect=fixed;fontFamily=Fira Code;fillColor=#CC0000;" parent="c9CYjMaBg8nkQYY7aThV-1" vertex="1">
                    <mxGeometry x="640" y="120" width="40" height="40" as="geometry"/>
                </mxCell>
                <mxCell id="c9CYjMaBg8nkQYY7aThV-10" style="edgeStyle=none;rounded=0;orthogonalLoop=1;jettySize=auto;html=1;exitX=0;exitY=1;exitDx=0;exitDy=0;entryX=1;entryY=0;entryDx=0;entryDy=0;endArrow=none;endFill=0;" parent="c9CYjMaBg8nkQYY7aThV-1" source="c9CYjMaBg8nkQYY7aThV-11" target="c9CYjMaBg8nkQYY7aThV-13" edge="1">
                    <mxGeometry relative="1" as="geometry"/>
                </mxCell>
                <mxCell id="c9CYjMaBg8nkQYY7aThV-11" value="35" style="ellipse;whiteSpace=wrap;html=1;aspect=fixed;fontFamily=Fira Code;fillColor=#000000;" parent="c9CYjMaBg8nkQYY7aThV-1" vertex="1">
                    <mxGeometry x="440" y="200" width="40" height="40" as="geometry"/>
                </mxCell>
                <mxCell id="c9CYjMaBg8nkQYY7aThV-12" value="50" style="ellipse;whiteSpace=wrap;html=1;aspect=fixed;fontFamily=Fira Code;fillColor=#000000;" parent="c9CYjMaBg8nkQYY7aThV-1" vertex="1">
                    <mxGeometry x="840" y="200" width="40" height="40" as="geometry"/>
                </mxCell>
                <mxCell id="c9CYjMaBg8nkQYY7aThV-13" value="15" style="ellipse;whiteSpace=wrap;html=1;aspect=fixed;fontFamily=Fira Code;fillColor=#CC0000;" parent="c9CYjMaBg8nkQYY7aThV-1" vertex="1">
                    <mxGeometry x="280" y="280" width="40" height="40" as="geometry"/>
                </mxCell>
                <mxCell id="c9CYjMaBg8nkQYY7aThV-14" style="edgeStyle=none;rounded=0;orthogonalLoop=1;jettySize=auto;html=1;exitX=0;exitY=0;exitDx=0;exitDy=0;entryX=1;entryY=1;entryDx=0;entryDy=0;endArrow=none;endFill=0;" parent="c9CYjMaBg8nkQYY7aThV-1" source="c9CYjMaBg8nkQYY7aThV-15" target="c9CYjMaBg8nkQYY7aThV-12" edge="1">
                    <mxGeometry relative="1" as="geometry"/>
                </mxCell>
                <mxCell id="c9CYjMaBg8nkQYY7aThV-17" style="edgeStyle=none;rounded=0;orthogonalLoop=1;jettySize=auto;html=1;exitX=0;exitY=1;exitDx=0;exitDy=0;entryX=1;entryY=0;entryDx=0;entryDy=0;endArrow=none;endFill=0;" parent="c9CYjMaBg8nkQYY7aThV-1" source="c9CYjMaBg8nkQYY7aThV-15" target="c9CYjMaBg8nkQYY7aThV-16" edge="1">
                    <mxGeometry relative="1" as="geometry"/>
                </mxCell>
                <mxCell id="c9CYjMaBg8nkQYY7aThV-15" value="95" style="ellipse;whiteSpace=wrap;html=1;aspect=fixed;fontFamily=Fira Code;fillColor=#CC0000;" parent="c9CYjMaBg8nkQYY7aThV-1" vertex="1">
                    <mxGeometry x="1000" y="280" width="40" height="40" as="geometry"/>
                </mxCell>
                <mxCell id="c9CYjMaBg8nkQYY7aThV-16" value="65" style="ellipse;whiteSpace=wrap;html=1;aspect=fixed;fontFamily=Fira Code;fillColor=#CC0000;" parent="c9CYjMaBg8nkQYY7aThV-1" vertex="1">
                    <mxGeometry x="880" y="360" width="40" height="40" as="geometry"/>
                </mxCell>
            </root>
        </mxGraphModel>
    </diagram>
    <diagram name="Copy of Copy of Copy of Copy of Copy of Copy of Copy of Copy of Copy of Copy of Copy of Copy of Copy of Copy of Page-1" id="J7swOyn2oq8n6sc6-KEn">
        <mxGraphModel dx="1402" dy="860" grid="1" gridSize="10" guides="1" tooltips="1" connect="1" arrows="1" fold="1" page="1" pageScale="1" pageWidth="800" pageHeight="800" math="0" shadow="0">
            <root>
                <mxCell id="m0h0iw_d9cCd2XMUi5pd-0"/>
                <mxCell id="m0h0iw_d9cCd2XMUi5pd-1" parent="m0h0iw_d9cCd2XMUi5pd-0"/>
                <mxCell id="m0h0iw_d9cCd2XMUi5pd-2" style="edgeStyle=none;rounded=0;orthogonalLoop=1;jettySize=auto;html=1;exitX=1;exitY=1;exitDx=0;exitDy=0;entryX=0;entryY=0;entryDx=0;entryDy=0;endArrow=none;endFill=0;" parent="m0h0iw_d9cCd2XMUi5pd-1" source="m0h0iw_d9cCd2XMUi5pd-3" target="m0h0iw_d9cCd2XMUi5pd-9" edge="1">
                    <mxGeometry relative="1" as="geometry"/>
                </mxCell>
                <mxCell id="m0h0iw_d9cCd2XMUi5pd-3" value="10" style="ellipse;whiteSpace=wrap;html=1;aspect=fixed;fontFamily=Fira Code;fillColor=#000000;" parent="m0h0iw_d9cCd2XMUi5pd-1" vertex="1">
                    <mxGeometry x="400" y="40" width="40" height="40" as="geometry"/>
                </mxCell>
                <mxCell id="m0h0iw_d9cCd2XMUi5pd-5" style="edgeStyle=none;rounded=0;orthogonalLoop=1;jettySize=auto;html=1;exitX=1;exitY=0;exitDx=0;exitDy=0;entryX=0;entryY=1;entryDx=0;entryDy=0;endArrow=none;endFill=0;" parent="m0h0iw_d9cCd2XMUi5pd-1" source="m0h0iw_d9cCd2XMUi5pd-6" target="m0h0iw_d9cCd2XMUi5pd-3" edge="1">
                    <mxGeometry relative="1" as="geometry"/>
                </mxCell>
                <mxCell id="m0h0iw_d9cCd2XMUi5pd-6" value="5" style="ellipse;whiteSpace=wrap;html=1;aspect=fixed;fontFamily=Fira Code;fillColor=#000000;" parent="m0h0iw_d9cCd2XMUi5pd-1" vertex="1">
                    <mxGeometry x="160" y="120" width="40" height="40" as="geometry"/>
                </mxCell>
                <mxCell id="m0h0iw_d9cCd2XMUi5pd-7" style="edgeStyle=none;rounded=0;orthogonalLoop=1;jettySize=auto;html=1;exitX=0;exitY=1;exitDx=0;exitDy=0;entryX=1;entryY=0;entryDx=0;entryDy=0;endArrow=none;endFill=0;" parent="m0h0iw_d9cCd2XMUi5pd-1" source="m0h0iw_d9cCd2XMUi5pd-9" target="m0h0iw_d9cCd2XMUi5pd-11" edge="1">
                    <mxGeometry relative="1" as="geometry"/>
                </mxCell>
                <mxCell id="m0h0iw_d9cCd2XMUi5pd-8" style="edgeStyle=none;rounded=0;orthogonalLoop=1;jettySize=auto;html=1;exitX=1;exitY=1;exitDx=0;exitDy=0;entryX=0;entryY=0;entryDx=0;entryDy=0;endArrow=none;endFill=0;" parent="m0h0iw_d9cCd2XMUi5pd-1" source="m0h0iw_d9cCd2XMUi5pd-9" target="m0h0iw_d9cCd2XMUi5pd-12" edge="1">
                    <mxGeometry relative="1" as="geometry"/>
                </mxCell>
                <mxCell id="m0h0iw_d9cCd2XMUi5pd-9" value="40" style="ellipse;whiteSpace=wrap;html=1;aspect=fixed;fontFamily=Fira Code;fillColor=#CC0000;" parent="m0h0iw_d9cCd2XMUi5pd-1" vertex="1">
                    <mxGeometry x="640" y="120" width="40" height="40" as="geometry"/>
                </mxCell>
                <mxCell id="m0h0iw_d9cCd2XMUi5pd-10" style="edgeStyle=none;rounded=0;orthogonalLoop=1;jettySize=auto;html=1;exitX=0;exitY=1;exitDx=0;exitDy=0;entryX=1;entryY=0;entryDx=0;entryDy=0;endArrow=none;endFill=0;" parent="m0h0iw_d9cCd2XMUi5pd-1" source="m0h0iw_d9cCd2XMUi5pd-11" target="m0h0iw_d9cCd2XMUi5pd-13" edge="1">
                    <mxGeometry relative="1" as="geometry"/>
                </mxCell>
                <mxCell id="m0h0iw_d9cCd2XMUi5pd-11" value="35" style="ellipse;whiteSpace=wrap;html=1;aspect=fixed;fontFamily=Fira Code;fillColor=#000000;" parent="m0h0iw_d9cCd2XMUi5pd-1" vertex="1">
                    <mxGeometry x="440" y="200" width="40" height="40" as="geometry"/>
                </mxCell>
                <mxCell id="m0h0iw_d9cCd2XMUi5pd-12" value="50" style="ellipse;whiteSpace=wrap;html=1;aspect=fixed;fontFamily=Fira Code;fillColor=#000000;" parent="m0h0iw_d9cCd2XMUi5pd-1" vertex="1">
                    <mxGeometry x="840" y="200" width="40" height="40" as="geometry"/>
                </mxCell>
                <mxCell id="m0h0iw_d9cCd2XMUi5pd-13" value="15" style="ellipse;whiteSpace=wrap;html=1;aspect=fixed;fontFamily=Fira Code;fillColor=#CC0000;" parent="m0h0iw_d9cCd2XMUi5pd-1" vertex="1">
                    <mxGeometry x="280" y="280" width="40" height="40" as="geometry"/>
                </mxCell>
                <mxCell id="m0h0iw_d9cCd2XMUi5pd-14" style="edgeStyle=none;rounded=0;orthogonalLoop=1;jettySize=auto;html=1;exitX=0;exitY=0;exitDx=0;exitDy=0;entryX=1;entryY=1;entryDx=0;entryDy=0;endArrow=none;endFill=0;" parent="m0h0iw_d9cCd2XMUi5pd-1" source="m0h0iw_d9cCd2XMUi5pd-16" target="m0h0iw_d9cCd2XMUi5pd-12" edge="1">
                    <mxGeometry relative="1" as="geometry"/>
                </mxCell>
                <mxCell id="m0h0iw_d9cCd2XMUi5pd-15" style="edgeStyle=none;rounded=0;orthogonalLoop=1;jettySize=auto;html=1;exitX=1;exitY=1;exitDx=0;exitDy=0;entryX=0;entryY=0;entryDx=0;entryDy=0;endArrow=none;endFill=0;" parent="m0h0iw_d9cCd2XMUi5pd-1" source="m0h0iw_d9cCd2XMUi5pd-16" target="m0h0iw_d9cCd2XMUi5pd-17" edge="1">
                    <mxGeometry relative="1" as="geometry"/>
                </mxCell>
                <mxCell id="m0h0iw_d9cCd2XMUi5pd-16" value="65" style="ellipse;whiteSpace=wrap;html=1;aspect=fixed;fontFamily=Fira Code;fillColor=#CC0000;" parent="m0h0iw_d9cCd2XMUi5pd-1" vertex="1">
                    <mxGeometry x="1000" y="280" width="40" height="40" as="geometry"/>
                </mxCell>
                <mxCell id="m0h0iw_d9cCd2XMUi5pd-17" value="95" style="ellipse;whiteSpace=wrap;html=1;aspect=fixed;fontFamily=Fira Code;fillColor=#CC0000;" parent="m0h0iw_d9cCd2XMUi5pd-1" vertex="1">
                    <mxGeometry x="1120" y="360" width="40" height="40" as="geometry"/>
                </mxCell>
            </root>
        </mxGraphModel>
    </diagram>
    <diagram name="Copy of Copy of Copy of Copy of Copy of Copy of Copy of Copy of Copy of Copy of Copy of Copy of Copy of Copy of Copy of Page-1" id="knoIjs3dKlVpERFZswyQ">
        <mxGraphModel dx="1402" dy="860" grid="1" gridSize="10" guides="1" tooltips="1" connect="1" arrows="1" fold="1" page="1" pageScale="1" pageWidth="800" pageHeight="800" math="0" shadow="0">
            <root>
                <mxCell id="RlNioWgF08MwBzFVifM6-0"/>
                <mxCell id="RlNioWgF08MwBzFVifM6-1" parent="RlNioWgF08MwBzFVifM6-0"/>
                <mxCell id="RlNioWgF08MwBzFVifM6-2" style="edgeStyle=none;rounded=0;orthogonalLoop=1;jettySize=auto;html=1;exitX=1;exitY=1;exitDx=0;exitDy=0;entryX=0;entryY=0;entryDx=0;entryDy=0;endArrow=none;endFill=0;" parent="RlNioWgF08MwBzFVifM6-1" source="RlNioWgF08MwBzFVifM6-3" target="RlNioWgF08MwBzFVifM6-9" edge="1">
                    <mxGeometry relative="1" as="geometry"/>
                </mxCell>
                <mxCell id="RlNioWgF08MwBzFVifM6-3" value="10" style="ellipse;whiteSpace=wrap;html=1;aspect=fixed;fontFamily=Fira Code;fillColor=#000000;" parent="RlNioWgF08MwBzFVifM6-1" vertex="1">
                    <mxGeometry x="400" y="40" width="40" height="40" as="geometry"/>
                </mxCell>
                <mxCell id="RlNioWgF08MwBzFVifM6-5" style="edgeStyle=none;rounded=0;orthogonalLoop=1;jettySize=auto;html=1;exitX=1;exitY=0;exitDx=0;exitDy=0;entryX=0;entryY=1;entryDx=0;entryDy=0;endArrow=none;endFill=0;" parent="RlNioWgF08MwBzFVifM6-1" source="RlNioWgF08MwBzFVifM6-6" target="RlNioWgF08MwBzFVifM6-3" edge="1">
                    <mxGeometry relative="1" as="geometry"/>
                </mxCell>
                <mxCell id="RlNioWgF08MwBzFVifM6-6" value="5" style="ellipse;whiteSpace=wrap;html=1;aspect=fixed;fontFamily=Fira Code;fillColor=#000000;" parent="RlNioWgF08MwBzFVifM6-1" vertex="1">
                    <mxGeometry x="160" y="120" width="40" height="40" as="geometry"/>
                </mxCell>
                <mxCell id="RlNioWgF08MwBzFVifM6-7" style="edgeStyle=none;rounded=0;orthogonalLoop=1;jettySize=auto;html=1;exitX=0;exitY=1;exitDx=0;exitDy=0;entryX=1;entryY=0;entryDx=0;entryDy=0;endArrow=none;endFill=0;" parent="RlNioWgF08MwBzFVifM6-1" source="RlNioWgF08MwBzFVifM6-9" target="RlNioWgF08MwBzFVifM6-11" edge="1">
                    <mxGeometry relative="1" as="geometry"/>
                </mxCell>
                <mxCell id="RlNioWgF08MwBzFVifM6-8" style="edgeStyle=none;rounded=0;orthogonalLoop=1;jettySize=auto;html=1;exitX=1;exitY=1;exitDx=0;exitDy=0;entryX=0;entryY=0;entryDx=0;entryDy=0;endArrow=none;endFill=0;" parent="RlNioWgF08MwBzFVifM6-1" source="RlNioWgF08MwBzFVifM6-9" target="RlNioWgF08MwBzFVifM6-12" edge="1">
                    <mxGeometry relative="1" as="geometry"/>
                </mxCell>
                <mxCell id="RlNioWgF08MwBzFVifM6-9" value="40" style="ellipse;whiteSpace=wrap;html=1;aspect=fixed;fontFamily=Fira Code;fillColor=#CC0000;" parent="RlNioWgF08MwBzFVifM6-1" vertex="1">
                    <mxGeometry x="640" y="120" width="40" height="40" as="geometry"/>
                </mxCell>
                <mxCell id="RlNioWgF08MwBzFVifM6-10" style="edgeStyle=none;rounded=0;orthogonalLoop=1;jettySize=auto;html=1;exitX=0;exitY=1;exitDx=0;exitDy=0;entryX=1;entryY=0;entryDx=0;entryDy=0;endArrow=none;endFill=0;" parent="RlNioWgF08MwBzFVifM6-1" source="RlNioWgF08MwBzFVifM6-11" target="RlNioWgF08MwBzFVifM6-13" edge="1">
                    <mxGeometry relative="1" as="geometry"/>
                </mxCell>
                <mxCell id="RlNioWgF08MwBzFVifM6-11" value="35" style="ellipse;whiteSpace=wrap;html=1;aspect=fixed;fontFamily=Fira Code;fillColor=#000000;" parent="RlNioWgF08MwBzFVifM6-1" vertex="1">
                    <mxGeometry x="440" y="200" width="40" height="40" as="geometry"/>
                </mxCell>
                <mxCell id="RlNioWgF08MwBzFVifM6-12" value="65" style="ellipse;whiteSpace=wrap;html=1;aspect=fixed;fontFamily=Fira Code;fillColor=#CC0000;" parent="RlNioWgF08MwBzFVifM6-1" vertex="1">
                    <mxGeometry x="840" y="200" width="40" height="40" as="geometry"/>
                </mxCell>
                <mxCell id="RlNioWgF08MwBzFVifM6-13" value="15" style="ellipse;whiteSpace=wrap;html=1;aspect=fixed;fontFamily=Fira Code;fillColor=#CC0000;" parent="RlNioWgF08MwBzFVifM6-1" vertex="1">
                    <mxGeometry x="280" y="280" width="40" height="40" as="geometry"/>
                </mxCell>
                <mxCell id="RlNioWgF08MwBzFVifM6-14" style="edgeStyle=none;rounded=0;orthogonalLoop=1;jettySize=auto;html=1;exitX=1;exitY=0;exitDx=0;exitDy=0;entryX=0;entryY=1;entryDx=0;entryDy=0;endArrow=none;endFill=0;" parent="RlNioWgF08MwBzFVifM6-1" source="RlNioWgF08MwBzFVifM6-16" target="RlNioWgF08MwBzFVifM6-12" edge="1">
                    <mxGeometry relative="1" as="geometry"/>
                </mxCell>
                <mxCell id="RlNioWgF08MwBzFVifM6-16" value="50" style="ellipse;whiteSpace=wrap;html=1;aspect=fixed;fontFamily=Fira Code;fillColor=#000000;" parent="RlNioWgF08MwBzFVifM6-1" vertex="1">
                    <mxGeometry x="680" y="280" width="40" height="40" as="geometry"/>
                </mxCell>
                <mxCell id="QIzVYOJrFLOayzMzwLvB-0" style="edgeStyle=none;rounded=0;orthogonalLoop=1;jettySize=auto;html=1;exitX=0;exitY=0;exitDx=0;exitDy=0;entryX=1;entryY=1;entryDx=0;entryDy=0;endArrow=none;endFill=0;" parent="RlNioWgF08MwBzFVifM6-1" source="RlNioWgF08MwBzFVifM6-17" target="RlNioWgF08MwBzFVifM6-12" edge="1">
                    <mxGeometry relative="1" as="geometry"/>
                </mxCell>
                <mxCell id="RlNioWgF08MwBzFVifM6-17" value="95" style="ellipse;whiteSpace=wrap;html=1;aspect=fixed;fontFamily=Fira Code;fillColor=#CC0000;" parent="RlNioWgF08MwBzFVifM6-1" vertex="1">
                    <mxGeometry x="1000" y="280" width="40" height="40" as="geometry"/>
                </mxCell>
            </root>
        </mxGraphModel>
    </diagram>
    <diagram name="Copy of Copy of Copy of Copy of Copy of Copy of Copy of Copy of Copy of Copy of Copy of Copy of Copy of Copy of Copy of Copy of Page-1" id="LBQqc_44OAQ5vgmHTcWN">
        <mxGraphModel dx="1402" dy="860" grid="1" gridSize="10" guides="1" tooltips="1" connect="1" arrows="1" fold="1" page="1" pageScale="1" pageWidth="800" pageHeight="800" math="0" shadow="0">
            <root>
                <mxCell id="x5a_G3fwgbXwNSRSOhJZ-0"/>
                <mxCell id="x5a_G3fwgbXwNSRSOhJZ-1" parent="x5a_G3fwgbXwNSRSOhJZ-0"/>
                <mxCell id="x5a_G3fwgbXwNSRSOhJZ-2" style="edgeStyle=none;rounded=0;orthogonalLoop=1;jettySize=auto;html=1;exitX=1;exitY=1;exitDx=0;exitDy=0;entryX=0;entryY=0;entryDx=0;entryDy=0;endArrow=none;endFill=0;" parent="x5a_G3fwgbXwNSRSOhJZ-1" source="x5a_G3fwgbXwNSRSOhJZ-3" target="x5a_G3fwgbXwNSRSOhJZ-9" edge="1">
                    <mxGeometry relative="1" as="geometry"/>
                </mxCell>
                <mxCell id="x5a_G3fwgbXwNSRSOhJZ-3" value="10" style="ellipse;whiteSpace=wrap;html=1;aspect=fixed;fontFamily=Fira Code;fillColor=#000000;" parent="x5a_G3fwgbXwNSRSOhJZ-1" vertex="1">
                    <mxGeometry x="400" y="40" width="40" height="40" as="geometry"/>
                </mxCell>
                <mxCell id="x5a_G3fwgbXwNSRSOhJZ-5" style="edgeStyle=none;rounded=0;orthogonalLoop=1;jettySize=auto;html=1;exitX=1;exitY=0;exitDx=0;exitDy=0;entryX=0;entryY=1;entryDx=0;entryDy=0;endArrow=none;endFill=0;" parent="x5a_G3fwgbXwNSRSOhJZ-1" source="x5a_G3fwgbXwNSRSOhJZ-6" target="x5a_G3fwgbXwNSRSOhJZ-3" edge="1">
                    <mxGeometry relative="1" as="geometry"/>
                </mxCell>
                <mxCell id="x5a_G3fwgbXwNSRSOhJZ-6" value="5" style="ellipse;whiteSpace=wrap;html=1;aspect=fixed;fontFamily=Fira Code;fillColor=#000000;" parent="x5a_G3fwgbXwNSRSOhJZ-1" vertex="1">
                    <mxGeometry x="160" y="120" width="40" height="40" as="geometry"/>
                </mxCell>
                <mxCell id="x5a_G3fwgbXwNSRSOhJZ-7" style="edgeStyle=none;rounded=0;orthogonalLoop=1;jettySize=auto;html=1;exitX=0;exitY=1;exitDx=0;exitDy=0;entryX=1;entryY=0;entryDx=0;entryDy=0;endArrow=none;endFill=0;" parent="x5a_G3fwgbXwNSRSOhJZ-1" source="x5a_G3fwgbXwNSRSOhJZ-9" target="x5a_G3fwgbXwNSRSOhJZ-11" edge="1">
                    <mxGeometry relative="1" as="geometry"/>
                </mxCell>
                <mxCell id="x5a_G3fwgbXwNSRSOhJZ-8" style="edgeStyle=none;rounded=0;orthogonalLoop=1;jettySize=auto;html=1;exitX=1;exitY=1;exitDx=0;exitDy=0;entryX=0;entryY=0;entryDx=0;entryDy=0;endArrow=none;endFill=0;" parent="x5a_G3fwgbXwNSRSOhJZ-1" source="x5a_G3fwgbXwNSRSOhJZ-9" target="x5a_G3fwgbXwNSRSOhJZ-12" edge="1">
                    <mxGeometry relative="1" as="geometry"/>
                </mxCell>
                <mxCell id="x5a_G3fwgbXwNSRSOhJZ-9" value="40" style="ellipse;whiteSpace=wrap;html=1;aspect=fixed;fontFamily=Fira Code;fillColor=#CC0000;" parent="x5a_G3fwgbXwNSRSOhJZ-1" vertex="1">
                    <mxGeometry x="640" y="120" width="40" height="40" as="geometry"/>
                </mxCell>
                <mxCell id="x5a_G3fwgbXwNSRSOhJZ-10" style="edgeStyle=none;rounded=0;orthogonalLoop=1;jettySize=auto;html=1;exitX=0;exitY=1;exitDx=0;exitDy=0;entryX=1;entryY=0;entryDx=0;entryDy=0;endArrow=none;endFill=0;" parent="x5a_G3fwgbXwNSRSOhJZ-1" source="x5a_G3fwgbXwNSRSOhJZ-11" target="x5a_G3fwgbXwNSRSOhJZ-13" edge="1">
                    <mxGeometry relative="1" as="geometry"/>
                </mxCell>
                <mxCell id="x5a_G3fwgbXwNSRSOhJZ-11" value="35" style="ellipse;whiteSpace=wrap;html=1;aspect=fixed;fontFamily=Fira Code;fillColor=#000000;" parent="x5a_G3fwgbXwNSRSOhJZ-1" vertex="1">
                    <mxGeometry x="440" y="200" width="40" height="40" as="geometry"/>
                </mxCell>
                <mxCell id="x5a_G3fwgbXwNSRSOhJZ-12" value="65" style="ellipse;whiteSpace=wrap;html=1;aspect=fixed;fontFamily=Fira Code;fillColor=#000000;" parent="x5a_G3fwgbXwNSRSOhJZ-1" vertex="1">
                    <mxGeometry x="840" y="200" width="40" height="40" as="geometry"/>
                </mxCell>
                <mxCell id="x5a_G3fwgbXwNSRSOhJZ-13" value="15" style="ellipse;whiteSpace=wrap;html=1;aspect=fixed;fontFamily=Fira Code;fillColor=#CC0000;" parent="x5a_G3fwgbXwNSRSOhJZ-1" vertex="1">
                    <mxGeometry x="280" y="280" width="40" height="40" as="geometry"/>
                </mxCell>
                <mxCell id="x5a_G3fwgbXwNSRSOhJZ-14" style="edgeStyle=none;rounded=0;orthogonalLoop=1;jettySize=auto;html=1;exitX=1;exitY=0;exitDx=0;exitDy=0;entryX=0;entryY=1;entryDx=0;entryDy=0;endArrow=none;endFill=0;" parent="x5a_G3fwgbXwNSRSOhJZ-1" source="x5a_G3fwgbXwNSRSOhJZ-15" target="x5a_G3fwgbXwNSRSOhJZ-12" edge="1">
                    <mxGeometry relative="1" as="geometry"/>
                </mxCell>
                <mxCell id="x5a_G3fwgbXwNSRSOhJZ-15" value="50" style="ellipse;whiteSpace=wrap;html=1;aspect=fixed;fontFamily=Fira Code;fillColor=#CC0000;" parent="x5a_G3fwgbXwNSRSOhJZ-1" vertex="1">
                    <mxGeometry x="680" y="280" width="40" height="40" as="geometry"/>
                </mxCell>
                <mxCell id="x5a_G3fwgbXwNSRSOhJZ-16" style="edgeStyle=none;rounded=0;orthogonalLoop=1;jettySize=auto;html=1;exitX=0;exitY=0;exitDx=0;exitDy=0;entryX=1;entryY=1;entryDx=0;entryDy=0;endArrow=none;endFill=0;" parent="x5a_G3fwgbXwNSRSOhJZ-1" source="x5a_G3fwgbXwNSRSOhJZ-17" target="x5a_G3fwgbXwNSRSOhJZ-12" edge="1">
                    <mxGeometry relative="1" as="geometry"/>
                </mxCell>
                <mxCell id="x5a_G3fwgbXwNSRSOhJZ-17" value="95" style="ellipse;whiteSpace=wrap;html=1;aspect=fixed;fontFamily=Fira Code;fillColor=#CC0000;" parent="x5a_G3fwgbXwNSRSOhJZ-1" vertex="1">
                    <mxGeometry x="1000" y="280" width="40" height="40" as="geometry"/>
                </mxCell>
            </root>
        </mxGraphModel>
    </diagram>
    <diagram name="Copy of Copy of Copy of Copy of Copy of Copy of Copy of Copy of Copy of Copy of Copy of Copy of Copy of Copy of Copy of Copy of Copy of Page-1" id="07YMiVvFjZJyCwmnDzzN">
        <mxGraphModel dx="1402" dy="860" grid="1" gridSize="10" guides="1" tooltips="1" connect="1" arrows="1" fold="1" page="1" pageScale="1" pageWidth="800" pageHeight="800" math="0" shadow="0">
            <root>
                <mxCell id="ASO81603bK_5fQlo1yqX-0"/>
                <mxCell id="ASO81603bK_5fQlo1yqX-1" parent="ASO81603bK_5fQlo1yqX-0"/>
                <mxCell id="ASO81603bK_5fQlo1yqX-2" style="edgeStyle=none;rounded=0;orthogonalLoop=1;jettySize=auto;html=1;exitX=1;exitY=1;exitDx=0;exitDy=0;entryX=0;entryY=0;entryDx=0;entryDy=0;endArrow=none;endFill=0;" parent="ASO81603bK_5fQlo1yqX-1" source="ASO81603bK_5fQlo1yqX-3" target="ASO81603bK_5fQlo1yqX-9" edge="1">
                    <mxGeometry relative="1" as="geometry"/>
                </mxCell>
                <mxCell id="ASO81603bK_5fQlo1yqX-3" value="10" style="ellipse;whiteSpace=wrap;html=1;aspect=fixed;fontFamily=Fira Code;fillColor=#000000;" parent="ASO81603bK_5fQlo1yqX-1" vertex="1">
                    <mxGeometry x="400" y="40" width="40" height="40" as="geometry"/>
                </mxCell>
                <mxCell id="ASO81603bK_5fQlo1yqX-5" style="edgeStyle=none;rounded=0;orthogonalLoop=1;jettySize=auto;html=1;exitX=1;exitY=0;exitDx=0;exitDy=0;entryX=0;entryY=1;entryDx=0;entryDy=0;endArrow=none;endFill=0;" parent="ASO81603bK_5fQlo1yqX-1" source="ASO81603bK_5fQlo1yqX-6" target="ASO81603bK_5fQlo1yqX-3" edge="1">
                    <mxGeometry relative="1" as="geometry"/>
                </mxCell>
                <mxCell id="ASO81603bK_5fQlo1yqX-6" value="5" style="ellipse;whiteSpace=wrap;html=1;aspect=fixed;fontFamily=Fira Code;fillColor=#000000;" parent="ASO81603bK_5fQlo1yqX-1" vertex="1">
                    <mxGeometry x="160" y="120" width="40" height="40" as="geometry"/>
                </mxCell>
                <mxCell id="ASO81603bK_5fQlo1yqX-7" style="edgeStyle=none;rounded=0;orthogonalLoop=1;jettySize=auto;html=1;exitX=0;exitY=1;exitDx=0;exitDy=0;entryX=1;entryY=0;entryDx=0;entryDy=0;endArrow=none;endFill=0;" parent="ASO81603bK_5fQlo1yqX-1" source="ASO81603bK_5fQlo1yqX-9" target="ASO81603bK_5fQlo1yqX-11" edge="1">
                    <mxGeometry relative="1" as="geometry"/>
                </mxCell>
                <mxCell id="ASO81603bK_5fQlo1yqX-8" style="edgeStyle=none;rounded=0;orthogonalLoop=1;jettySize=auto;html=1;exitX=1;exitY=1;exitDx=0;exitDy=0;entryX=0;entryY=0;entryDx=0;entryDy=0;endArrow=none;endFill=0;" parent="ASO81603bK_5fQlo1yqX-1" source="ASO81603bK_5fQlo1yqX-9" target="ASO81603bK_5fQlo1yqX-12" edge="1">
                    <mxGeometry relative="1" as="geometry"/>
                </mxCell>
                <mxCell id="ASO81603bK_5fQlo1yqX-9" value="40" style="ellipse;whiteSpace=wrap;html=1;aspect=fixed;fontFamily=Fira Code;fillColor=#CC0000;" parent="ASO81603bK_5fQlo1yqX-1" vertex="1">
                    <mxGeometry x="640" y="120" width="40" height="40" as="geometry"/>
                </mxCell>
                <mxCell id="ASO81603bK_5fQlo1yqX-10" style="edgeStyle=none;rounded=0;orthogonalLoop=1;jettySize=auto;html=1;exitX=0;exitY=1;exitDx=0;exitDy=0;entryX=1;entryY=0;entryDx=0;entryDy=0;endArrow=none;endFill=0;" parent="ASO81603bK_5fQlo1yqX-1" source="ASO81603bK_5fQlo1yqX-11" target="ASO81603bK_5fQlo1yqX-13" edge="1">
                    <mxGeometry relative="1" as="geometry"/>
                </mxCell>
                <mxCell id="ASO81603bK_5fQlo1yqX-11" value="35" style="ellipse;whiteSpace=wrap;html=1;aspect=fixed;fontFamily=Fira Code;fillColor=#000000;" parent="ASO81603bK_5fQlo1yqX-1" vertex="1">
                    <mxGeometry x="440" y="200" width="40" height="40" as="geometry"/>
                </mxCell>
                <mxCell id="ASO81603bK_5fQlo1yqX-12" value="65" style="ellipse;whiteSpace=wrap;html=1;aspect=fixed;fontFamily=Fira Code;fillColor=#000000;" parent="ASO81603bK_5fQlo1yqX-1" vertex="1">
                    <mxGeometry x="840" y="200" width="40" height="40" as="geometry"/>
                </mxCell>
                <mxCell id="ASO81603bK_5fQlo1yqX-13" value="15" style="ellipse;whiteSpace=wrap;html=1;aspect=fixed;fontFamily=Fira Code;fillColor=#CC0000;" parent="ASO81603bK_5fQlo1yqX-1" vertex="1">
                    <mxGeometry x="280" y="280" width="40" height="40" as="geometry"/>
                </mxCell>
                <mxCell id="ASO81603bK_5fQlo1yqX-14" style="edgeStyle=none;rounded=0;orthogonalLoop=1;jettySize=auto;html=1;exitX=1;exitY=0;exitDx=0;exitDy=0;entryX=0;entryY=1;entryDx=0;entryDy=0;endArrow=none;endFill=0;" parent="ASO81603bK_5fQlo1yqX-1" source="ASO81603bK_5fQlo1yqX-15" target="ASO81603bK_5fQlo1yqX-12" edge="1">
                    <mxGeometry relative="1" as="geometry"/>
                </mxCell>
                <mxCell id="ASO81603bK_5fQlo1yqX-15" value="50" style="ellipse;whiteSpace=wrap;html=1;aspect=fixed;fontFamily=Fira Code;fillColor=#CC0000;" parent="ASO81603bK_5fQlo1yqX-1" vertex="1">
                    <mxGeometry x="680" y="280" width="40" height="40" as="geometry"/>
                </mxCell>
                <mxCell id="ASO81603bK_5fQlo1yqX-16" style="edgeStyle=none;rounded=0;orthogonalLoop=1;jettySize=auto;html=1;exitX=0;exitY=0;exitDx=0;exitDy=0;entryX=1;entryY=1;entryDx=0;entryDy=0;endArrow=none;endFill=0;" parent="ASO81603bK_5fQlo1yqX-1" source="ASO81603bK_5fQlo1yqX-17" target="ASO81603bK_5fQlo1yqX-12" edge="1">
                    <mxGeometry relative="1" as="geometry"/>
                </mxCell>
                <mxCell id="ASO81603bK_5fQlo1yqX-17" value="95" style="ellipse;whiteSpace=wrap;html=1;aspect=fixed;fontFamily=Fira Code;fillColor=#CC0000;" parent="ASO81603bK_5fQlo1yqX-1" vertex="1">
                    <mxGeometry x="1000" y="280" width="40" height="40" as="geometry"/>
                </mxCell>
                <mxCell id="If9rxy3YL-v_UpgKKEJb-1" style="edgeStyle=none;rounded=0;orthogonalLoop=1;jettySize=auto;html=1;exitX=0;exitY=0;exitDx=0;exitDy=0;entryX=1;entryY=1;entryDx=0;entryDy=0;endArrow=none;endFill=0;" parent="ASO81603bK_5fQlo1yqX-1" source="If9rxy3YL-v_UpgKKEJb-0" target="ASO81603bK_5fQlo1yqX-13" edge="1">
                    <mxGeometry relative="1" as="geometry"/>
                </mxCell>
                <mxCell id="If9rxy3YL-v_UpgKKEJb-0" value="20" style="ellipse;whiteSpace=wrap;html=1;aspect=fixed;fontFamily=Fira Code;fillColor=#CC0000;" parent="ASO81603bK_5fQlo1yqX-1" vertex="1">
                    <mxGeometry x="400" y="360" width="40" height="40" as="geometry"/>
                </mxCell>
            </root>
        </mxGraphModel>
    </diagram>
    <diagram name="Copy of Copy of Copy of Copy of Copy of Copy of Copy of Copy of Copy of Copy of Copy of Copy of Copy of Copy of Copy of Copy of Copy of Copy of Page-1" id="HXI_6Rx0fedj6nJ2O1A2">
        <mxGraphModel dx="1402" dy="860" grid="1" gridSize="10" guides="1" tooltips="1" connect="1" arrows="1" fold="1" page="1" pageScale="1" pageWidth="800" pageHeight="800" math="0" shadow="0">
            <root>
                <mxCell id="xTtIY02p9Y6Qrl0vHK5u-0"/>
                <mxCell id="xTtIY02p9Y6Qrl0vHK5u-1" parent="xTtIY02p9Y6Qrl0vHK5u-0"/>
                <mxCell id="xTtIY02p9Y6Qrl0vHK5u-2" style="edgeStyle=none;rounded=0;orthogonalLoop=1;jettySize=auto;html=1;exitX=1;exitY=1;exitDx=0;exitDy=0;entryX=0;entryY=0;entryDx=0;entryDy=0;endArrow=none;endFill=0;" parent="xTtIY02p9Y6Qrl0vHK5u-1" source="xTtIY02p9Y6Qrl0vHK5u-3" target="xTtIY02p9Y6Qrl0vHK5u-9" edge="1">
                    <mxGeometry relative="1" as="geometry"/>
                </mxCell>
                <mxCell id="xTtIY02p9Y6Qrl0vHK5u-3" value="10" style="ellipse;whiteSpace=wrap;html=1;aspect=fixed;fontFamily=Fira Code;fillColor=#000000;" parent="xTtIY02p9Y6Qrl0vHK5u-1" vertex="1">
                    <mxGeometry x="400" y="40" width="40" height="40" as="geometry"/>
                </mxCell>
                <mxCell id="xTtIY02p9Y6Qrl0vHK5u-5" style="edgeStyle=none;rounded=0;orthogonalLoop=1;jettySize=auto;html=1;exitX=1;exitY=0;exitDx=0;exitDy=0;entryX=0;entryY=1;entryDx=0;entryDy=0;endArrow=none;endFill=0;" parent="xTtIY02p9Y6Qrl0vHK5u-1" source="xTtIY02p9Y6Qrl0vHK5u-6" target="xTtIY02p9Y6Qrl0vHK5u-3" edge="1">
                    <mxGeometry relative="1" as="geometry"/>
                </mxCell>
                <mxCell id="xTtIY02p9Y6Qrl0vHK5u-6" value="5" style="ellipse;whiteSpace=wrap;html=1;aspect=fixed;fontFamily=Fira Code;fillColor=#000000;" parent="xTtIY02p9Y6Qrl0vHK5u-1" vertex="1">
                    <mxGeometry x="160" y="120" width="40" height="40" as="geometry"/>
                </mxCell>
                <mxCell id="xTtIY02p9Y6Qrl0vHK5u-7" style="edgeStyle=none;rounded=0;orthogonalLoop=1;jettySize=auto;html=1;exitX=0;exitY=1;exitDx=0;exitDy=0;entryX=1;entryY=0;entryDx=0;entryDy=0;endArrow=none;endFill=0;" parent="xTtIY02p9Y6Qrl0vHK5u-1" source="xTtIY02p9Y6Qrl0vHK5u-9" target="xTtIY02p9Y6Qrl0vHK5u-11" edge="1">
                    <mxGeometry relative="1" as="geometry"/>
                </mxCell>
                <mxCell id="xTtIY02p9Y6Qrl0vHK5u-8" style="edgeStyle=none;rounded=0;orthogonalLoop=1;jettySize=auto;html=1;exitX=1;exitY=1;exitDx=0;exitDy=0;entryX=0;entryY=0;entryDx=0;entryDy=0;endArrow=none;endFill=0;" parent="xTtIY02p9Y6Qrl0vHK5u-1" source="xTtIY02p9Y6Qrl0vHK5u-9" target="xTtIY02p9Y6Qrl0vHK5u-12" edge="1">
                    <mxGeometry relative="1" as="geometry"/>
                </mxCell>
                <mxCell id="xTtIY02p9Y6Qrl0vHK5u-9" value="40" style="ellipse;whiteSpace=wrap;html=1;aspect=fixed;fontFamily=Fira Code;fillColor=#CC0000;" parent="xTtIY02p9Y6Qrl0vHK5u-1" vertex="1">
                    <mxGeometry x="640" y="120" width="40" height="40" as="geometry"/>
                </mxCell>
                <mxCell id="xTtIY02p9Y6Qrl0vHK5u-10" style="edgeStyle=none;rounded=0;orthogonalLoop=1;jettySize=auto;html=1;exitX=0;exitY=1;exitDx=0;exitDy=0;entryX=1;entryY=0;entryDx=0;entryDy=0;endArrow=none;endFill=0;" parent="xTtIY02p9Y6Qrl0vHK5u-1" source="xTtIY02p9Y6Qrl0vHK5u-11" target="xTtIY02p9Y6Qrl0vHK5u-13" edge="1">
                    <mxGeometry relative="1" as="geometry"/>
                </mxCell>
                <mxCell id="xTtIY02p9Y6Qrl0vHK5u-11" value="35" style="ellipse;whiteSpace=wrap;html=1;aspect=fixed;fontFamily=Fira Code;fillColor=#000000;" parent="xTtIY02p9Y6Qrl0vHK5u-1" vertex="1">
                    <mxGeometry x="440" y="200" width="40" height="40" as="geometry"/>
                </mxCell>
                <mxCell id="xTtIY02p9Y6Qrl0vHK5u-12" value="65" style="ellipse;whiteSpace=wrap;html=1;aspect=fixed;fontFamily=Fira Code;fillColor=#000000;" parent="xTtIY02p9Y6Qrl0vHK5u-1" vertex="1">
                    <mxGeometry x="840" y="200" width="40" height="40" as="geometry"/>
                </mxCell>
                <mxCell id="xTtIY02p9Y6Qrl0vHK5u-13" value="20" style="ellipse;whiteSpace=wrap;html=1;aspect=fixed;fontFamily=Fira Code;fillColor=#CC0000;" parent="xTtIY02p9Y6Qrl0vHK5u-1" vertex="1">
                    <mxGeometry x="280" y="280" width="40" height="40" as="geometry"/>
                </mxCell>
                <mxCell id="xTtIY02p9Y6Qrl0vHK5u-14" style="edgeStyle=none;rounded=0;orthogonalLoop=1;jettySize=auto;html=1;exitX=1;exitY=0;exitDx=0;exitDy=0;entryX=0;entryY=1;entryDx=0;entryDy=0;endArrow=none;endFill=0;" parent="xTtIY02p9Y6Qrl0vHK5u-1" source="xTtIY02p9Y6Qrl0vHK5u-15" target="xTtIY02p9Y6Qrl0vHK5u-12" edge="1">
                    <mxGeometry relative="1" as="geometry"/>
                </mxCell>
                <mxCell id="xTtIY02p9Y6Qrl0vHK5u-15" value="50" style="ellipse;whiteSpace=wrap;html=1;aspect=fixed;fontFamily=Fira Code;fillColor=#CC0000;" parent="xTtIY02p9Y6Qrl0vHK5u-1" vertex="1">
                    <mxGeometry x="680" y="280" width="40" height="40" as="geometry"/>
                </mxCell>
                <mxCell id="xTtIY02p9Y6Qrl0vHK5u-16" style="edgeStyle=none;rounded=0;orthogonalLoop=1;jettySize=auto;html=1;exitX=0;exitY=0;exitDx=0;exitDy=0;entryX=1;entryY=1;entryDx=0;entryDy=0;endArrow=none;endFill=0;" parent="xTtIY02p9Y6Qrl0vHK5u-1" source="xTtIY02p9Y6Qrl0vHK5u-17" target="xTtIY02p9Y6Qrl0vHK5u-12" edge="1">
                    <mxGeometry relative="1" as="geometry"/>
                </mxCell>
                <mxCell id="xTtIY02p9Y6Qrl0vHK5u-17" value="95" style="ellipse;whiteSpace=wrap;html=1;aspect=fixed;fontFamily=Fira Code;fillColor=#CC0000;" parent="xTtIY02p9Y6Qrl0vHK5u-1" vertex="1">
                    <mxGeometry x="1000" y="280" width="40" height="40" as="geometry"/>
                </mxCell>
                <mxCell id="xTtIY02p9Y6Qrl0vHK5u-18" style="edgeStyle=none;rounded=0;orthogonalLoop=1;jettySize=auto;html=1;exitX=1;exitY=0;exitDx=0;exitDy=0;entryX=0;entryY=1;entryDx=0;entryDy=0;endArrow=none;endFill=0;" parent="xTtIY02p9Y6Qrl0vHK5u-1" source="xTtIY02p9Y6Qrl0vHK5u-19" target="xTtIY02p9Y6Qrl0vHK5u-13" edge="1">
                    <mxGeometry relative="1" as="geometry"/>
                </mxCell>
                <mxCell id="xTtIY02p9Y6Qrl0vHK5u-19" value="15" style="ellipse;whiteSpace=wrap;html=1;aspect=fixed;fontFamily=Fira Code;fillColor=#CC0000;" parent="xTtIY02p9Y6Qrl0vHK5u-1" vertex="1">
                    <mxGeometry x="160" y="360" width="40" height="40" as="geometry"/>
                </mxCell>
            </root>
        </mxGraphModel>
    </diagram>
    <diagram name="Copy of Copy of Copy of Copy of Copy of Copy of Copy of Copy of Copy of Copy of Copy of Copy of Copy of Copy of Copy of Copy of Copy of Copy of Copy of Page-1" id="l27U5yJZSoJ7nRbLyAmS">
        <mxGraphModel dx="1402" dy="860" grid="1" gridSize="10" guides="1" tooltips="1" connect="1" arrows="1" fold="1" page="1" pageScale="1" pageWidth="800" pageHeight="800" math="0" shadow="0">
            <root>
                <mxCell id="SrUMTHV0mGNNn-rK14H0-0"/>
                <mxCell id="SrUMTHV0mGNNn-rK14H0-1" parent="SrUMTHV0mGNNn-rK14H0-0"/>
                <mxCell id="SrUMTHV0mGNNn-rK14H0-2" style="edgeStyle=none;rounded=0;orthogonalLoop=1;jettySize=auto;html=1;exitX=1;exitY=1;exitDx=0;exitDy=0;entryX=0;entryY=0;entryDx=0;entryDy=0;endArrow=none;endFill=0;" parent="SrUMTHV0mGNNn-rK14H0-1" source="SrUMTHV0mGNNn-rK14H0-3" target="SrUMTHV0mGNNn-rK14H0-9" edge="1">
                    <mxGeometry relative="1" as="geometry"/>
                </mxCell>
                <mxCell id="SrUMTHV0mGNNn-rK14H0-3" value="10" style="ellipse;whiteSpace=wrap;html=1;aspect=fixed;fontFamily=Fira Code;fillColor=#000000;" parent="SrUMTHV0mGNNn-rK14H0-1" vertex="1">
                    <mxGeometry x="400" y="40" width="40" height="40" as="geometry"/>
                </mxCell>
                <mxCell id="SrUMTHV0mGNNn-rK14H0-5" style="edgeStyle=none;rounded=0;orthogonalLoop=1;jettySize=auto;html=1;exitX=1;exitY=0;exitDx=0;exitDy=0;entryX=0;entryY=1;entryDx=0;entryDy=0;endArrow=none;endFill=0;" parent="SrUMTHV0mGNNn-rK14H0-1" source="SrUMTHV0mGNNn-rK14H0-6" target="SrUMTHV0mGNNn-rK14H0-3" edge="1">
                    <mxGeometry relative="1" as="geometry"/>
                </mxCell>
                <mxCell id="SrUMTHV0mGNNn-rK14H0-6" value="5" style="ellipse;whiteSpace=wrap;html=1;aspect=fixed;fontFamily=Fira Code;fillColor=#000000;" parent="SrUMTHV0mGNNn-rK14H0-1" vertex="1">
                    <mxGeometry x="160" y="120" width="40" height="40" as="geometry"/>
                </mxCell>
                <mxCell id="SrUMTHV0mGNNn-rK14H0-7" style="edgeStyle=none;rounded=0;orthogonalLoop=1;jettySize=auto;html=1;exitX=0;exitY=1;exitDx=0;exitDy=0;entryX=1;entryY=0;entryDx=0;entryDy=0;endArrow=none;endFill=0;" parent="SrUMTHV0mGNNn-rK14H0-1" source="SrUMTHV0mGNNn-rK14H0-9" target="SrUMTHV0mGNNn-rK14H0-11" edge="1">
                    <mxGeometry relative="1" as="geometry"/>
                </mxCell>
                <mxCell id="SrUMTHV0mGNNn-rK14H0-8" style="edgeStyle=none;rounded=0;orthogonalLoop=1;jettySize=auto;html=1;exitX=1;exitY=1;exitDx=0;exitDy=0;entryX=0;entryY=0;entryDx=0;entryDy=0;endArrow=none;endFill=0;" parent="SrUMTHV0mGNNn-rK14H0-1" source="SrUMTHV0mGNNn-rK14H0-9" target="SrUMTHV0mGNNn-rK14H0-12" edge="1">
                    <mxGeometry relative="1" as="geometry"/>
                </mxCell>
                <mxCell id="SrUMTHV0mGNNn-rK14H0-9" value="40" style="ellipse;whiteSpace=wrap;html=1;aspect=fixed;fontFamily=Fira Code;fillColor=#CC0000;" parent="SrUMTHV0mGNNn-rK14H0-1" vertex="1">
                    <mxGeometry x="640" y="120" width="40" height="40" as="geometry"/>
                </mxCell>
                <mxCell id="SrUMTHV0mGNNn-rK14H0-10" style="edgeStyle=none;rounded=0;orthogonalLoop=1;jettySize=auto;html=1;exitX=1;exitY=1;exitDx=0;exitDy=0;entryX=0;entryY=0;entryDx=0;entryDy=0;endArrow=none;endFill=0;" parent="SrUMTHV0mGNNn-rK14H0-1" source="SrUMTHV0mGNNn-rK14H0-11" target="SrUMTHV0mGNNn-rK14H0-13" edge="1">
                    <mxGeometry relative="1" as="geometry"/>
                </mxCell>
                <mxCell id="SrUMTHV0mGNNn-rK14H0-20" style="edgeStyle=none;rounded=0;orthogonalLoop=1;jettySize=auto;html=1;exitX=0;exitY=1;exitDx=0;exitDy=0;entryX=1;entryY=0;entryDx=0;entryDy=0;endArrow=none;endFill=0;" parent="SrUMTHV0mGNNn-rK14H0-1" source="SrUMTHV0mGNNn-rK14H0-11" target="SrUMTHV0mGNNn-rK14H0-19" edge="1">
                    <mxGeometry relative="1" as="geometry"/>
                </mxCell>
                <mxCell id="SrUMTHV0mGNNn-rK14H0-11" value="20" style="ellipse;whiteSpace=wrap;html=1;aspect=fixed;fontFamily=Fira Code;fillColor=#CC0000;" parent="SrUMTHV0mGNNn-rK14H0-1" vertex="1">
                    <mxGeometry x="440" y="200" width="40" height="40" as="geometry"/>
                </mxCell>
                <mxCell id="SrUMTHV0mGNNn-rK14H0-12" value="65" style="ellipse;whiteSpace=wrap;html=1;aspect=fixed;fontFamily=Fira Code;fillColor=#000000;" parent="SrUMTHV0mGNNn-rK14H0-1" vertex="1">
                    <mxGeometry x="840" y="200" width="40" height="40" as="geometry"/>
                </mxCell>
                <mxCell id="SrUMTHV0mGNNn-rK14H0-13" value="35" style="ellipse;whiteSpace=wrap;html=1;aspect=fixed;fontFamily=Fira Code;fillColor=#000000;" parent="SrUMTHV0mGNNn-rK14H0-1" vertex="1">
                    <mxGeometry x="600" y="280" width="40" height="40" as="geometry"/>
                </mxCell>
                <mxCell id="SrUMTHV0mGNNn-rK14H0-14" style="edgeStyle=none;rounded=0;orthogonalLoop=1;jettySize=auto;html=1;exitX=1;exitY=0;exitDx=0;exitDy=0;entryX=0;entryY=1;entryDx=0;entryDy=0;endArrow=none;endFill=0;" parent="SrUMTHV0mGNNn-rK14H0-1" source="SrUMTHV0mGNNn-rK14H0-15" target="SrUMTHV0mGNNn-rK14H0-12" edge="1">
                    <mxGeometry relative="1" as="geometry"/>
                </mxCell>
                <mxCell id="SrUMTHV0mGNNn-rK14H0-15" value="50" style="ellipse;whiteSpace=wrap;html=1;aspect=fixed;fontFamily=Fira Code;fillColor=#CC0000;" parent="SrUMTHV0mGNNn-rK14H0-1" vertex="1">
                    <mxGeometry x="680" y="280" width="40" height="40" as="geometry"/>
                </mxCell>
                <mxCell id="SrUMTHV0mGNNn-rK14H0-16" style="edgeStyle=none;rounded=0;orthogonalLoop=1;jettySize=auto;html=1;exitX=0;exitY=0;exitDx=0;exitDy=0;entryX=1;entryY=1;entryDx=0;entryDy=0;endArrow=none;endFill=0;" parent="SrUMTHV0mGNNn-rK14H0-1" source="SrUMTHV0mGNNn-rK14H0-17" target="SrUMTHV0mGNNn-rK14H0-12" edge="1">
                    <mxGeometry relative="1" as="geometry"/>
                </mxCell>
                <mxCell id="SrUMTHV0mGNNn-rK14H0-17" value="95" style="ellipse;whiteSpace=wrap;html=1;aspect=fixed;fontFamily=Fira Code;fillColor=#CC0000;" parent="SrUMTHV0mGNNn-rK14H0-1" vertex="1">
                    <mxGeometry x="1000" y="280" width="40" height="40" as="geometry"/>
                </mxCell>
                <mxCell id="SrUMTHV0mGNNn-rK14H0-19" value="15" style="ellipse;whiteSpace=wrap;html=1;aspect=fixed;fontFamily=Fira Code;fillColor=#CC0000;" parent="SrUMTHV0mGNNn-rK14H0-1" vertex="1">
                    <mxGeometry x="280" y="280" width="40" height="40" as="geometry"/>
                </mxCell>
            </root>
        </mxGraphModel>
    </diagram>
    <diagram name="Copy of Copy of Copy of Copy of Copy of Copy of Copy of Copy of Copy of Copy of Copy of Copy of Copy of Copy of Copy of Copy of Copy of Copy of Copy of Copy of Page-1" id="pGt2L_hPD8K9EnP6jRGM">
        <mxGraphModel dx="1402" dy="860" grid="1" gridSize="10" guides="1" tooltips="1" connect="1" arrows="1" fold="1" page="1" pageScale="1" pageWidth="800" pageHeight="800" math="0" shadow="0">
            <root>
                <mxCell id="5183ZHahK9JP0Vpk-0Rb-0"/>
                <mxCell id="5183ZHahK9JP0Vpk-0Rb-1" parent="5183ZHahK9JP0Vpk-0Rb-0"/>
                <mxCell id="5183ZHahK9JP0Vpk-0Rb-2" style="edgeStyle=none;rounded=0;orthogonalLoop=1;jettySize=auto;html=1;exitX=1;exitY=1;exitDx=0;exitDy=0;entryX=0;entryY=0;entryDx=0;entryDy=0;endArrow=none;endFill=0;" parent="5183ZHahK9JP0Vpk-0Rb-1" source="5183ZHahK9JP0Vpk-0Rb-3" target="5183ZHahK9JP0Vpk-0Rb-9" edge="1">
                    <mxGeometry relative="1" as="geometry"/>
                </mxCell>
                <mxCell id="5183ZHahK9JP0Vpk-0Rb-3" value="10" style="ellipse;whiteSpace=wrap;html=1;aspect=fixed;fontFamily=Fira Code;fillColor=#000000;" parent="5183ZHahK9JP0Vpk-0Rb-1" vertex="1">
                    <mxGeometry x="400" y="40" width="40" height="40" as="geometry"/>
                </mxCell>
                <mxCell id="5183ZHahK9JP0Vpk-0Rb-5" style="edgeStyle=none;rounded=0;orthogonalLoop=1;jettySize=auto;html=1;exitX=1;exitY=0;exitDx=0;exitDy=0;entryX=0;entryY=1;entryDx=0;entryDy=0;endArrow=none;endFill=0;" parent="5183ZHahK9JP0Vpk-0Rb-1" source="5183ZHahK9JP0Vpk-0Rb-6" target="5183ZHahK9JP0Vpk-0Rb-3" edge="1">
                    <mxGeometry relative="1" as="geometry"/>
                </mxCell>
                <mxCell id="5183ZHahK9JP0Vpk-0Rb-6" value="5" style="ellipse;whiteSpace=wrap;html=1;aspect=fixed;fontFamily=Fira Code;fillColor=#000000;" parent="5183ZHahK9JP0Vpk-0Rb-1" vertex="1">
                    <mxGeometry x="160" y="120" width="40" height="40" as="geometry"/>
                </mxCell>
                <mxCell id="5183ZHahK9JP0Vpk-0Rb-7" style="edgeStyle=none;rounded=0;orthogonalLoop=1;jettySize=auto;html=1;exitX=0;exitY=1;exitDx=0;exitDy=0;entryX=1;entryY=0;entryDx=0;entryDy=0;endArrow=none;endFill=0;" parent="5183ZHahK9JP0Vpk-0Rb-1" source="5183ZHahK9JP0Vpk-0Rb-9" target="5183ZHahK9JP0Vpk-0Rb-12" edge="1">
                    <mxGeometry relative="1" as="geometry"/>
                </mxCell>
                <mxCell id="5183ZHahK9JP0Vpk-0Rb-8" style="edgeStyle=none;rounded=0;orthogonalLoop=1;jettySize=auto;html=1;exitX=1;exitY=1;exitDx=0;exitDy=0;entryX=0;entryY=0;entryDx=0;entryDy=0;endArrow=none;endFill=0;" parent="5183ZHahK9JP0Vpk-0Rb-1" source="5183ZHahK9JP0Vpk-0Rb-9" target="5183ZHahK9JP0Vpk-0Rb-13" edge="1">
                    <mxGeometry relative="1" as="geometry"/>
                </mxCell>
                <mxCell id="5183ZHahK9JP0Vpk-0Rb-9" value="40" style="ellipse;whiteSpace=wrap;html=1;aspect=fixed;fontFamily=Fira Code;fillColor=#CC0000;" parent="5183ZHahK9JP0Vpk-0Rb-1" vertex="1">
                    <mxGeometry x="640" y="120" width="40" height="40" as="geometry"/>
                </mxCell>
                <mxCell id="5183ZHahK9JP0Vpk-0Rb-10" style="edgeStyle=none;rounded=0;orthogonalLoop=1;jettySize=auto;html=1;exitX=1;exitY=1;exitDx=0;exitDy=0;entryX=0;entryY=0;entryDx=0;entryDy=0;endArrow=none;endFill=0;" parent="5183ZHahK9JP0Vpk-0Rb-1" source="5183ZHahK9JP0Vpk-0Rb-12" target="5183ZHahK9JP0Vpk-0Rb-14" edge="1">
                    <mxGeometry relative="1" as="geometry"/>
                </mxCell>
                <mxCell id="5183ZHahK9JP0Vpk-0Rb-11" style="edgeStyle=none;rounded=0;orthogonalLoop=1;jettySize=auto;html=1;exitX=0;exitY=1;exitDx=0;exitDy=0;entryX=1;entryY=0;entryDx=0;entryDy=0;endArrow=none;endFill=0;" parent="5183ZHahK9JP0Vpk-0Rb-1" source="5183ZHahK9JP0Vpk-0Rb-12" target="5183ZHahK9JP0Vpk-0Rb-19" edge="1">
                    <mxGeometry relative="1" as="geometry"/>
                </mxCell>
                <mxCell id="5183ZHahK9JP0Vpk-0Rb-12" value="20" style="ellipse;whiteSpace=wrap;html=1;aspect=fixed;fontFamily=Fira Code;fillColor=#000000;" parent="5183ZHahK9JP0Vpk-0Rb-1" vertex="1">
                    <mxGeometry x="440" y="200" width="40" height="40" as="geometry"/>
                </mxCell>
                <mxCell id="5183ZHahK9JP0Vpk-0Rb-13" value="65" style="ellipse;whiteSpace=wrap;html=1;aspect=fixed;fontFamily=Fira Code;fillColor=#000000;" parent="5183ZHahK9JP0Vpk-0Rb-1" vertex="1">
                    <mxGeometry x="840" y="200" width="40" height="40" as="geometry"/>
                </mxCell>
                <mxCell id="5183ZHahK9JP0Vpk-0Rb-14" value="35" style="ellipse;whiteSpace=wrap;html=1;aspect=fixed;fontFamily=Fira Code;fillColor=#CC0000;" parent="5183ZHahK9JP0Vpk-0Rb-1" vertex="1">
                    <mxGeometry x="600" y="280" width="40" height="40" as="geometry"/>
                </mxCell>
                <mxCell id="5183ZHahK9JP0Vpk-0Rb-15" style="edgeStyle=none;rounded=0;orthogonalLoop=1;jettySize=auto;html=1;exitX=1;exitY=0;exitDx=0;exitDy=0;entryX=0;entryY=1;entryDx=0;entryDy=0;endArrow=none;endFill=0;" parent="5183ZHahK9JP0Vpk-0Rb-1" source="5183ZHahK9JP0Vpk-0Rb-16" target="5183ZHahK9JP0Vpk-0Rb-13" edge="1">
                    <mxGeometry relative="1" as="geometry"/>
                </mxCell>
                <mxCell id="5183ZHahK9JP0Vpk-0Rb-16" value="50" style="ellipse;whiteSpace=wrap;html=1;aspect=fixed;fontFamily=Fira Code;fillColor=#CC0000;" parent="5183ZHahK9JP0Vpk-0Rb-1" vertex="1">
                    <mxGeometry x="680" y="280" width="40" height="40" as="geometry"/>
                </mxCell>
                <mxCell id="5183ZHahK9JP0Vpk-0Rb-17" style="edgeStyle=none;rounded=0;orthogonalLoop=1;jettySize=auto;html=1;exitX=0;exitY=0;exitDx=0;exitDy=0;entryX=1;entryY=1;entryDx=0;entryDy=0;endArrow=none;endFill=0;" parent="5183ZHahK9JP0Vpk-0Rb-1" source="5183ZHahK9JP0Vpk-0Rb-18" target="5183ZHahK9JP0Vpk-0Rb-13" edge="1">
                    <mxGeometry relative="1" as="geometry"/>
                </mxCell>
                <mxCell id="5183ZHahK9JP0Vpk-0Rb-18" value="95" style="ellipse;whiteSpace=wrap;html=1;aspect=fixed;fontFamily=Fira Code;fillColor=#CC0000;" parent="5183ZHahK9JP0Vpk-0Rb-1" vertex="1">
                    <mxGeometry x="1000" y="280" width="40" height="40" as="geometry"/>
                </mxCell>
                <mxCell id="5183ZHahK9JP0Vpk-0Rb-19" value="15" style="ellipse;whiteSpace=wrap;html=1;aspect=fixed;fontFamily=Fira Code;fillColor=#CC0000;" parent="5183ZHahK9JP0Vpk-0Rb-1" vertex="1">
                    <mxGeometry x="280" y="280" width="40" height="40" as="geometry"/>
                </mxCell>
            </root>
        </mxGraphModel>
    </diagram>
</mxfile>